solid Created by stlwrite.m 20-Dec-2016 20:13:38
facet normal 9.1784197E-01 -3.9694592E-01 0.0000000E+00
outer loop
vertex -3.1999949E-01 -6.0246564E-02 5.8334001E-04
vertex -3.1133181E-01 -4.0204644E-02 5.8334001E-04
vertex -3.1999949E-01 -6.0246564E-02 3.4449991E-02
endloop
endfacet
facet normal 9.1784197E-01 -3.9694592E-01 0.0000000E+00
outer loop
vertex -3.1999949E-01 -6.0246564E-02 3.4449991E-02
vertex -3.1133181E-01 -4.0204644E-02 5.8334001E-04
vertex -3.1133181E-01 -4.0204644E-02 3.4449991E-02
endloop
endfacet
facet normal 9.7227174E-01 -2.3385407E-01 0.0000000E+00
outer loop
vertex -3.1133181E-01 -4.0204644E-02 3.4449991E-02
vertex -3.1133181E-01 -4.0204644E-02 5.8334001E-04
vertex -3.0622539E-01 -1.8974194E-02 5.8334001E-04
endloop
endfacet
facet normal 9.9795961E-01 -6.3846759E-02 0.0000000E+00
outer loop
vertex -3.0622539E-01 -1.8974194E-02 3.4449991E-02
vertex -3.0622539E-01 -1.8974194E-02 5.8334001E-04
vertex -3.0483124E-01 2.8171723E-03 3.4449991E-02
endloop
endfacet
facet normal 9.7227174E-01 -2.3385407E-01 0.0000000E+00
outer loop
vertex -3.0622539E-01 -1.8974194E-02 3.4449991E-02
vertex -3.1133181E-01 -4.0204644E-02 3.4449991E-02
vertex -3.0622539E-01 -1.8974194E-02 5.8334001E-04
endloop
endfacet
facet normal 9.9795961E-01 -6.3846759E-02 0.0000000E+00
outer loop
vertex -3.0622539E-01 -1.8974194E-02 5.8334001E-04
vertex -3.0483124E-01 2.8171723E-03 5.8334001E-04
vertex -3.0483124E-01 2.8171723E-03 3.4449991E-02
endloop
endfacet
facet normal 9.9414557E-01 1.0804815E-01 0.0000000E+00
outer loop
vertex -3.0483124E-01 2.8171723E-03 3.4449991E-02
vertex -3.0483124E-01 2.8171723E-03 5.8334001E-04
vertex -3.0719057E-01 2.4525257E-02 5.8334001E-04
endloop
endfacet
facet normal 9.6094292E-01 2.7674678E-01 0.0000000E+00
outer loop
vertex -3.0719057E-01 2.4525257E-02 3.4449991E-02
vertex -3.0719057E-01 2.4525257E-02 5.8334001E-04
vertex -3.1323358E-01 4.5508318E-02 5.8334001E-04
endloop
endfacet
facet normal 8.9933187E-01 4.3726668E-01 0.0000000E+00
outer loop
vertex -3.1323358E-01 4.5508318E-02 3.4449991E-02
vertex -3.1323358E-01 4.5508318E-02 5.8334001E-04
vertex -3.2278171E-01 6.5146074E-02 5.8334001E-04
endloop
endfacet
facet normal 8.1113523E-01 5.8485860E-01 0.0000000E+00
outer loop
vertex -3.2278171E-01 6.5146074E-02 3.4449991E-02
vertex -3.2278171E-01 6.5146074E-02 5.8334001E-04
vertex -3.3555263E-01 8.2857952E-02 5.8334001E-04
endloop
endfacet
facet normal 6.9896084E-01 7.1516001E-01 0.0000000E+00
outer loop
vertex -3.3555263E-01 8.2857952E-02 3.4449991E-02
vertex -3.3555263E-01 8.2857952E-02 5.8334001E-04
vertex -3.5116881E-01 9.8120406E-02 5.8334001E-04
endloop
endfacet
facet normal 5.6612110E-01 8.2432204E-01 0.0000000E+00
outer loop
vertex -3.5116881E-01 9.8120406E-02 3.4449991E-02
vertex -3.5116881E-01 9.8120406E-02 5.8334001E-04
vertex -3.6916864E-01 1.1048218E-01 5.8334001E-04
endloop
endfacet
facet normal 4.1654718E-01 9.0911412E-01 0.0000000E+00
outer loop
vertex -3.6916864E-01 1.1048218E-01 3.4449991E-02
vertex -3.6916864E-01 1.1048218E-01 5.8334001E-04
vertex -3.8901997E-01 1.1957786E-01 5.8334001E-04
endloop
endfacet
facet normal 2.5466037E-01 9.6703053E-01 0.0000000E+00
outer loop
vertex -3.8901997E-01 1.1957786E-01 3.4449991E-02
vertex -3.8901997E-01 1.1957786E-01 5.8334001E-04
vertex -4.1013598E-01 1.2513861E-01 5.8334001E-04
endloop
endfacet
facet normal 8.5243195E-02 9.9636012E-01 0.0000000E+00
outer loop
vertex -4.1013598E-01 1.2513861E-01 3.4449991E-02
vertex -4.1013598E-01 1.2513861E-01 5.8334001E-04
vertex -4.3189242E-01 1.2699997E-01 5.8334001E-04
endloop
endfacet
facet normal -8.6694047E-02 9.9623495E-01 0.0000000E+00
outer loop
vertex -4.3189242E-01 1.2699997E-01 3.4449991E-02
vertex -4.3189242E-01 1.2699997E-01 5.8334001E-04
vertex -4.5364612E-01 1.2510693E-01 3.4449991E-02
endloop
endfacet
facet normal 8.5243195E-02 9.9636012E-01 0.0000000E+00
outer loop
vertex -4.3189242E-01 1.2699997E-01 3.4449991E-02
vertex -4.1013598E-01 1.2513861E-01 3.4449991E-02
vertex -4.3189242E-01 1.2699997E-01 5.8334001E-04
endloop
endfacet
facet normal -8.6694047E-02 9.9623495E-01 0.0000000E+00
outer loop
vertex -4.3189242E-01 1.2699997E-01 5.8334001E-04
vertex -4.5364612E-01 1.2510693E-01 5.8334001E-04
vertex -4.5364612E-01 1.2510693E-01 3.4449991E-02
endloop
endfacet
facet normal -2.5606617E-01 9.6665925E-01 0.0000000E+00
outer loop
vertex -4.5364612E-01 1.2510693E-01 3.4449991E-02
vertex -4.5364612E-01 1.2510693E-01 5.8334001E-04
vertex -4.7475401E-01 1.1951549E-01 5.8334001E-04
endloop
endfacet
facet normal -4.1787034E-01 9.0850657E-01 0.0000000E+00
outer loop
vertex -4.7475401E-01 1.1951549E-01 3.4449991E-02
vertex -4.7475401E-01 1.1951549E-01 5.8334001E-04
vertex -4.9459207E-01 1.1039092E-01 5.8334001E-04
endloop
endfacet
facet normal -5.6732017E-01 8.2349735E-01 0.0000000E+00
outer loop
vertex -4.9459207E-01 1.1039092E-01 3.4449991E-02
vertex -4.9459207E-01 1.1039092E-01 5.8334001E-04
vertex -5.1257390E-01 9.8002955E-02 5.8334001E-04
endloop
endfacet
facet normal -7.0000088E-01 7.1414191E-01 0.0000000E+00
outer loop
vertex -5.1257390E-01 9.8002955E-02 3.4449991E-02
vertex -5.1257390E-01 9.8002955E-02 5.8334001E-04
vertex -5.2816784E-01 8.2717791E-02 5.8334001E-04
endloop
endfacet
facet normal -8.1198525E-01 5.8367777E-01 0.0000000E+00
outer loop
vertex -5.2816784E-01 8.2717791E-02 3.4449991E-02
vertex -5.2816784E-01 8.2717791E-02 5.8334001E-04
vertex -5.4091299E-01 6.4987347E-02 5.8334001E-04
endloop
endfacet
facet normal -8.9996761E-01 4.3595675E-01 0.0000000E+00
outer loop
vertex -5.4091299E-01 6.4987347E-02 3.4449991E-02
vertex -5.4091299E-01 6.4987347E-02 5.8334001E-04
vertex -5.5043250E-01 4.5335725E-02 5.8334001E-04
endloop
endfacet
facet normal -9.6134430E-01 2.7534905E-01 0.0000000E+00
outer loop
vertex -5.5043250E-01 4.5335725E-02 3.4449991E-02
vertex -5.5043250E-01 4.5335725E-02 5.8334001E-04
vertex -5.5644500E-01 2.4343889E-02 5.8334001E-04
endloop
endfacet
facet normal -9.9430180E-01 1.0660142E-01 0.0000000E+00
outer loop
vertex -5.5644500E-01 2.4343889E-02 3.4449991E-02
vertex -5.5644500E-01 2.4343889E-02 5.8334001E-04
vertex -5.5877274E-01 2.6323926E-03 5.8334001E-04
endloop
endfacet
facet normal -9.9786562E-01 -6.5301657E-02 -0.0000000E+00
outer loop
vertex -5.5877274E-01 2.6323926E-03 3.4449991E-02
vertex -5.5877274E-01 2.6323926E-03 5.8334001E-04
vertex -5.5734682E-01 -1.9156924E-02 5.8334001E-04
endloop
endfacet
facet normal -9.7193086E-01 -2.3526667E-01 -0.0000000E+00
outer loop
vertex -5.5734682E-01 -1.9156924E-02 3.4449991E-02
vertex -5.5734682E-01 -1.9156924E-02 5.8334001E-04
vertex -5.5220956E-01 -4.0379930E-02 5.8334001E-04
endloop
endfacet
facet normal -9.1726291E-01 -3.9828223E-01 -0.0000000E+00
outer loop
vertex -5.5220956E-01 -4.0379930E-02 3.4449991E-02
vertex -5.5220956E-01 -4.0379930E-02 5.8334001E-04
vertex -5.4351270E-01 -6.0409199E-02 5.8334001E-04
endloop
endfacet
facet normal -8.3547932E-01 -5.4952186E-01 -0.0000000E+00
outer loop
vertex -5.4351270E-01 -6.0409199E-02 3.4449991E-02
vertex -5.4351270E-01 -6.0409199E-02 5.8334001E-04
vertex -5.3151339E-01 -7.8652650E-02 5.8334001E-04
endloop
endfacet
facet normal -7.2899717E-01 -6.8451673E-01 -0.0000000E+00
outer loop
vertex -5.3151339E-01 -7.8652650E-02 3.4449991E-02
vertex -5.3151339E-01 -7.8652650E-02 5.8334001E-04
vertex -5.1656634E-01 -9.4570979E-02 5.8334001E-04
endloop
endfacet
facet normal -6.0096341E-01 -7.9927641E-01 -0.0000000E+00
outer loop
vertex -5.1656634E-01 -9.4570979E-02 3.4449991E-02
vertex -5.1656634E-01 -9.4570979E-02 5.8334001E-04
vertex -4.9911341E-01 -1.0769356E-01 5.8334001E-04
endloop
endfacet
facet normal -4.5516592E-01 -8.9040667E-01 -0.0000000E+00
outer loop
vertex -4.9911341E-01 -1.0769356E-01 3.4449991E-02
vertex -4.9911341E-01 -1.0769356E-01 5.8334001E-04
vertex -4.7967055E-01 -1.1763253E-01 5.8334001E-04
endloop
endfacet
facet normal -2.9591045E-01 -9.5521575E-01 -0.0000000E+00
outer loop
vertex -4.7967055E-01 -1.1763253E-01 3.4449991E-02
vertex -4.7967055E-01 -1.1763253E-01 5.8334001E-04
vertex -4.5881253E-01 -1.2409401E-01 5.8334001E-04
endloop
endfacet
facet normal -1.2790923E-01 -9.9178582E-01 -0.0000000E+00
outer loop
vertex -4.5881253E-01 -1.2409401E-01 3.4449991E-02
vertex -4.5881253E-01 -1.2409401E-01 5.8334001E-04
vertex -4.3715599E-01 -1.2688702E-01 5.8334001E-04
endloop
endfacet
facet normal 4.3875832E-02 -9.9903697E-01 0.0000000E+00
outer loop
vertex -4.3715599E-01 -1.2688702E-01 3.4449991E-02
vertex -4.3715599E-01 -1.2688702E-01 5.8334001E-04
vertex -4.1534108E-01 -1.2592895E-01 5.8334001E-04
endloop
endfacet
facet normal 2.1436059E-01 -9.7675455E-01 0.0000000E+00
outer loop
vertex -4.1534108E-01 -1.2592895E-01 3.4449991E-02
vertex -4.1534108E-01 -1.2592895E-01 5.8334001E-04
vertex -3.9401275E-01 -1.2124819E-01 5.8334001E-04
endloop
endfacet
facet normal 3.7851092E-01 -9.2559683E-01 0.0000000E+00
outer loop
vertex -3.9401275E-01 -1.2124819E-01 3.4449991E-02
vertex -3.9401275E-01 -1.2124819E-01 5.8334001E-04
vertex -3.7380150E-01 -1.1298306E-01 5.8334001E-04
endloop
endfacet
facet normal 3.7851092E-01 -9.2559683E-01 0.0000000E+00
outer loop
vertex -3.7380150E-01 -1.1298306E-01 3.4449991E-02
vertex -3.9401275E-01 -1.2124819E-01 3.4449991E-02
vertex -3.7380150E-01 -1.1298306E-01 5.8334001E-04
endloop
endfacet
facet normal 2.1436059E-01 -9.7675455E-01 0.0000000E+00
outer loop
vertex -3.9401275E-01 -1.2124819E-01 3.4449991E-02
vertex -4.1534108E-01 -1.2592895E-01 3.4449991E-02
vertex -3.9401275E-01 -1.2124819E-01 5.8334001E-04
endloop
endfacet
facet normal 4.3875832E-02 -9.9903697E-01 0.0000000E+00
outer loop
vertex -4.1534108E-01 -1.2592895E-01 3.4449991E-02
vertex -4.3715599E-01 -1.2688702E-01 3.4449991E-02
vertex -4.1534108E-01 -1.2592895E-01 5.8334001E-04
endloop
endfacet
facet normal -1.2790923E-01 -9.9178582E-01 -0.0000000E+00
outer loop
vertex -4.3715599E-01 -1.2688702E-01 3.4449991E-02
vertex -4.5881253E-01 -1.2409401E-01 3.4449991E-02
vertex -4.3715599E-01 -1.2688702E-01 5.8334001E-04
endloop
endfacet
facet normal -2.9591045E-01 -9.5521575E-01 -0.0000000E+00
outer loop
vertex -4.5881253E-01 -1.2409401E-01 3.4449991E-02
vertex -4.7967055E-01 -1.1763253E-01 3.4449991E-02
vertex -4.5881253E-01 -1.2409401E-01 5.8334001E-04
endloop
endfacet
facet normal -4.5516592E-01 -8.9040667E-01 -0.0000000E+00
outer loop
vertex -4.7967055E-01 -1.1763253E-01 3.4449991E-02
vertex -4.9911341E-01 -1.0769356E-01 3.4449991E-02
vertex -4.7967055E-01 -1.1763253E-01 5.8334001E-04
endloop
endfacet
facet normal -6.0096341E-01 -7.9927641E-01 -0.0000000E+00
outer loop
vertex -4.9911341E-01 -1.0769356E-01 3.4449991E-02
vertex -5.1656634E-01 -9.4570979E-02 3.4449991E-02
vertex -4.9911341E-01 -1.0769356E-01 5.8334001E-04
endloop
endfacet
facet normal -7.2899717E-01 -6.8451673E-01 -0.0000000E+00
outer loop
vertex -5.1656634E-01 -9.4570979E-02 3.4449991E-02
vertex -5.3151339E-01 -7.8652650E-02 3.4449991E-02
vertex -5.1656634E-01 -9.4570979E-02 5.8334001E-04
endloop
endfacet
facet normal -8.3547932E-01 -5.4952186E-01 -0.0000000E+00
outer loop
vertex -5.3151339E-01 -7.8652650E-02 3.4449991E-02
vertex -5.4351270E-01 -6.0409199E-02 3.4449991E-02
vertex -5.3151339E-01 -7.8652650E-02 5.8334001E-04
endloop
endfacet
facet normal -9.1726291E-01 -3.9828223E-01 -0.0000000E+00
outer loop
vertex -5.4351270E-01 -6.0409199E-02 3.4449991E-02
vertex -5.5220956E-01 -4.0379930E-02 3.4449991E-02
vertex -5.4351270E-01 -6.0409199E-02 5.8334001E-04
endloop
endfacet
facet normal -9.7193086E-01 -2.3526667E-01 -0.0000000E+00
outer loop
vertex -5.5220956E-01 -4.0379930E-02 3.4449991E-02
vertex -5.5734682E-01 -1.9156924E-02 3.4449991E-02
vertex -5.5220956E-01 -4.0379930E-02 5.8334001E-04
endloop
endfacet
facet normal -9.9786562E-01 -6.5301657E-02 -0.0000000E+00
outer loop
vertex -5.5734682E-01 -1.9156924E-02 3.4449991E-02
vertex -5.5877274E-01 2.6323926E-03 3.4449991E-02
vertex -5.5734682E-01 -1.9156924E-02 5.8334001E-04
endloop
endfacet
facet normal -9.9430180E-01 1.0660142E-01 0.0000000E+00
outer loop
vertex -5.5877274E-01 2.6323926E-03 3.4449991E-02
vertex -5.5644500E-01 2.4343889E-02 3.4449991E-02
vertex -5.5877274E-01 2.6323926E-03 5.8334001E-04
endloop
endfacet
facet normal -9.6134430E-01 2.7534905E-01 0.0000000E+00
outer loop
vertex -5.5644500E-01 2.4343889E-02 3.4449991E-02
vertex -5.5043250E-01 4.5335725E-02 3.4449991E-02
vertex -5.5644500E-01 2.4343889E-02 5.8334001E-04
endloop
endfacet
facet normal -8.9996761E-01 4.3595675E-01 0.0000000E+00
outer loop
vertex -5.5043250E-01 4.5335725E-02 3.4449991E-02
vertex -5.4091299E-01 6.4987347E-02 3.4449991E-02
vertex -5.5043250E-01 4.5335725E-02 5.8334001E-04
endloop
endfacet
facet normal -8.1198525E-01 5.8367777E-01 0.0000000E+00
outer loop
vertex -5.4091299E-01 6.4987347E-02 3.4449991E-02
vertex -5.2816784E-01 8.2717791E-02 3.4449991E-02
vertex -5.4091299E-01 6.4987347E-02 5.8334001E-04
endloop
endfacet
facet normal -7.0000088E-01 7.1414191E-01 0.0000000E+00
outer loop
vertex -5.2816784E-01 8.2717791E-02 3.4449991E-02
vertex -5.1257390E-01 9.8002955E-02 3.4449991E-02
vertex -5.2816784E-01 8.2717791E-02 5.8334001E-04
endloop
endfacet
facet normal -5.6732017E-01 8.2349735E-01 0.0000000E+00
outer loop
vertex -5.1257390E-01 9.8002955E-02 3.4449991E-02
vertex -4.9459207E-01 1.1039092E-01 3.4449991E-02
vertex -5.1257390E-01 9.8002955E-02 5.8334001E-04
endloop
endfacet
facet normal -4.1787034E-01 9.0850657E-01 0.0000000E+00
outer loop
vertex -4.9459207E-01 1.1039092E-01 3.4449991E-02
vertex -4.7475401E-01 1.1951549E-01 3.4449991E-02
vertex -4.9459207E-01 1.1039092E-01 5.8334001E-04
endloop
endfacet
facet normal -2.5606617E-01 9.6665925E-01 0.0000000E+00
outer loop
vertex -4.7475401E-01 1.1951549E-01 3.4449991E-02
vertex -4.5364612E-01 1.2510693E-01 3.4449991E-02
vertex -4.7475401E-01 1.1951549E-01 5.8334001E-04
endloop
endfacet
facet normal 2.5466037E-01 9.6703053E-01 0.0000000E+00
outer loop
vertex -4.1013598E-01 1.2513861E-01 3.4449991E-02
vertex -3.8901997E-01 1.1957786E-01 3.4449991E-02
vertex -4.1013598E-01 1.2513861E-01 5.8334001E-04
endloop
endfacet
facet normal 4.1654718E-01 9.0911412E-01 0.0000000E+00
outer loop
vertex -3.8901997E-01 1.1957786E-01 3.4449991E-02
vertex -3.6916864E-01 1.1048218E-01 3.4449991E-02
vertex -3.8901997E-01 1.1957786E-01 5.8334001E-04
endloop
endfacet
facet normal 5.6612110E-01 8.2432204E-01 0.0000000E+00
outer loop
vertex -3.6916864E-01 1.1048218E-01 3.4449991E-02
vertex -3.5116881E-01 9.8120406E-02 3.4449991E-02
vertex -3.6916864E-01 1.1048218E-01 5.8334001E-04
endloop
endfacet
facet normal 6.9896084E-01 7.1516001E-01 0.0000000E+00
outer loop
vertex -3.5116881E-01 9.8120406E-02 3.4449991E-02
vertex -3.3555263E-01 8.2857952E-02 3.4449991E-02
vertex -3.5116881E-01 9.8120406E-02 5.8334001E-04
endloop
endfacet
facet normal 8.1113523E-01 5.8485860E-01 0.0000000E+00
outer loop
vertex -3.3555263E-01 8.2857952E-02 3.4449991E-02
vertex -3.2278171E-01 6.5146074E-02 3.4449991E-02
vertex -3.3555263E-01 8.2857952E-02 5.8334001E-04
endloop
endfacet
facet normal 8.9933187E-01 4.3726668E-01 0.0000000E+00
outer loop
vertex -3.2278171E-01 6.5146074E-02 3.4449991E-02
vertex -3.1323358E-01 4.5508318E-02 3.4449991E-02
vertex -3.2278171E-01 6.5146074E-02 5.8334001E-04
endloop
endfacet
facet normal 9.6094292E-01 2.7674678E-01 0.0000000E+00
outer loop
vertex -3.1323358E-01 4.5508318E-02 3.4449991E-02
vertex -3.0719057E-01 2.4525257E-02 3.4449991E-02
vertex -3.1323358E-01 4.5508318E-02 5.8334001E-04
endloop
endfacet
facet normal 9.9414557E-01 1.0804815E-01 0.0000000E+00
outer loop
vertex -3.0719057E-01 2.4525257E-02 3.4449991E-02
vertex -3.0483124E-01 2.8171723E-03 3.4449991E-02
vertex -3.0719057E-01 2.4525257E-02 5.8334001E-04
endloop
endfacet
facet normal -7.5777698E-01 -6.5251368E-01 0.0000000E+00
outer loop
vertex -3.7380150E-01 -1.1298306E-01 5.8334001E-04
vertex -3.6952734E-01 -1.1794673E-01 5.8334001E-04
vertex -3.7380150E-01 -1.1298306E-01 3.4449991E-02
endloop
endfacet
facet normal -7.5777698E-01 -6.5251368E-01 0.0000000E+00
outer loop
vertex -3.7380150E-01 -1.1298306E-01 3.4449991E-02
vertex -3.6952734E-01 -1.1794673E-01 5.8334001E-04
vertex -3.6952734E-01 -1.1794673E-01 3.4449991E-02
endloop
endfacet
facet normal -6.3481164E-01 -7.7266699E-01 -0.0000000E+00
outer loop
vertex -3.6952734E-01 -1.1794673E-01 3.4449991E-02
vertex -3.6952734E-01 -1.1794673E-01 5.8334001E-04
vertex -3.6446613E-01 -1.2210494E-01 5.8334001E-04
endloop
endfacet
facet normal -4.9307719E-01 -8.6998552E-01 -0.0000000E+00
outer loop
vertex -3.6446613E-01 -1.2210494E-01 3.4449991E-02
vertex -3.6446613E-01 -1.2210494E-01 5.8334001E-04
vertex -3.5876745E-01 -1.2533475E-01 5.8334001E-04
endloop
endfacet
facet normal -3.3677503E-01 -9.4158518E-01 -0.0000000E+00
outer loop
vertex -3.5876745E-01 -1.2533475E-01 3.4449991E-02
vertex -3.5876745E-01 -1.2533475E-01 5.8334001E-04
vertex -3.5259977E-01 -1.2754074E-01 5.8334001E-04
endloop
endfacet
facet normal -1.7051367E-01 -9.8535538E-01 -0.0000000E+00
outer loop
vertex -3.5259977E-01 -1.2754074E-01 3.4449991E-02
vertex -3.5259977E-01 -1.2754074E-01 5.8334001E-04
vertex -3.4614539E-01 -1.2865765E-01 5.8334001E-04
endloop
endfacet
facet normal 7.8256143E-04 -9.9999976E-01 0.0000000E+00
outer loop
vertex -3.4614539E-01 -1.2865765E-01 3.4449991E-02
vertex -3.4614539E-01 -1.2865765E-01 5.8334001E-04
vertex -3.3959511E-01 -1.2865253E-01 5.8334001E-04
endloop
endfacet
facet normal 1.7205827E-01 -9.8508674E-01 0.0000000E+00
outer loop
vertex -3.3959511E-01 -1.2865253E-01 3.4449991E-02
vertex -3.3959511E-01 -1.2865253E-01 5.8334001E-04
vertex -3.3314249E-01 -1.2752549E-01 5.8334001E-04
endloop
endfacet
facet normal 3.3825034E-01 -9.4105613E-01 0.0000000E+00
outer loop
vertex -3.3314249E-01 -1.2752549E-01 3.4449991E-02
vertex -3.3314249E-01 -1.2752549E-01 5.8334001E-04
vertex -3.2697830E-01 -1.2530985E-01 5.8334001E-04
endloop
endfacet
facet normal 4.9444345E-01 -8.6920983E-01 0.0000000E+00
outer loop
vertex -3.2697830E-01 -1.2530985E-01 3.4449991E-02
vertex -3.2697830E-01 -1.2530985E-01 5.8334001E-04
vertex -3.2128471E-01 -1.2207110E-01 5.8334001E-04
endloop
endfacet
facet normal 6.3601911E-01 -7.7167320E-01 0.0000000E+00
outer loop
vertex -3.2128471E-01 -1.2207110E-01 3.4449991E-02
vertex -3.2128471E-01 -1.2207110E-01 5.8334001E-04
vertex -3.1623000E-01 -1.1790497E-01 5.8334001E-04
endloop
endfacet
facet normal 7.5879717E-01 -6.5132701E-01 0.0000000E+00
outer loop
vertex -3.1623000E-01 -1.1790497E-01 3.4449991E-02
vertex -3.1623000E-01 -1.1790497E-01 5.8334001E-04
vertex -3.1196362E-01 -1.1293463E-01 5.8334001E-04
endloop
endfacet
facet normal 8.5914868E-01 -5.1172614E-01 0.0000000E+00
outer loop
vertex -3.1196362E-01 -1.1293463E-01 3.4449991E-02
vertex -3.1196362E-01 -1.1293463E-01 5.8334001E-04
vertex -3.0861166E-01 -1.0730695E-01 5.8334001E-04
endloop
endfacet
facet normal 9.3410230E-01 -3.5700563E-01 0.0000000E+00
outer loop
vertex -3.0861166E-01 -1.0730695E-01 3.4449991E-02
vertex -3.0861166E-01 -1.0730695E-01 5.8334001E-04
vertex -3.0627316E-01 -1.0118829E-01 5.8334001E-04
endloop
endfacet
facet normal 9.8144829E-01 -1.9172694E-01 0.0000000E+00
outer loop
vertex -3.0627316E-01 -1.0118829E-01 3.4449991E-02
vertex -3.0627316E-01 -1.0118829E-01 5.8334001E-04
vertex -3.0501729E-01 -9.4759502E-02 5.8334001E-04
endloop
endfacet
facet normal 9.9978399E-01 -2.0783335E-02 0.0000000E+00
outer loop
vertex -3.0501729E-01 -9.4759502E-02 3.4449991E-02
vertex -3.0501729E-01 -9.4759502E-02 5.8334001E-04
vertex -3.0488116E-01 -8.8210620E-02 3.4449991E-02
endloop
endfacet
facet normal 9.8144829E-01 -1.9172694E-01 0.0000000E+00
outer loop
vertex -3.0501729E-01 -9.4759502E-02 3.4449991E-02
vertex -3.0627316E-01 -1.0118829E-01 3.4449991E-02
vertex -3.0501729E-01 -9.4759502E-02 5.8334001E-04
endloop
endfacet
facet normal 9.9978399E-01 -2.0783335E-02 0.0000000E+00
outer loop
vertex -3.0501729E-01 -9.4759502E-02 5.8334001E-04
vertex -3.0488116E-01 -8.8210620E-02 5.8334001E-04
vertex -3.0488116E-01 -8.8210620E-02 3.4449991E-02
endloop
endfacet
facet normal 9.8856825E-01 1.5077446E-01 0.0000000E+00
outer loop
vertex -3.0488116E-01 -8.8210620E-02 3.4449991E-02
vertex -3.0488116E-01 -8.8210620E-02 5.8334001E-04
vertex -3.0586877E-01 -8.1735194E-02 5.8334001E-04
endloop
endfacet
facet normal 9.4813156E-01 3.1787816E-01 0.0000000E+00
outer loop
vertex -3.0586877E-01 -8.1735194E-02 3.4449991E-02
vertex -3.0586877E-01 -8.1735194E-02 5.8334001E-04
vertex -3.0795097E-01 -7.5524643E-02 5.8334001E-04
endloop
endfacet
facet normal 8.7967432E-01 4.7557661E-01 0.0000000E+00
outer loop
vertex -3.0795097E-01 -7.5524643E-02 3.4449991E-02
vertex -3.0795097E-01 -7.5524643E-02 5.8334001E-04
vertex -3.1106615E-01 -6.9762498E-02 5.8334001E-04
endloop
endfacet
facet normal 7.8520823E-01 6.1923176E-01 0.0000000E+00
outer loop
vertex -3.1106615E-01 -6.9762498E-02 3.4449991E-02
vertex -3.1106615E-01 -6.9762498E-02 5.8334001E-04
vertex -3.1512231E-01 -6.4619146E-02 5.8334001E-04
endloop
endfacet
facet normal 6.6753972E-01 7.4457419E-01 0.0000000E+00
outer loop
vertex -3.1512231E-01 -6.4619146E-02 3.4449991E-02
vertex -3.1512231E-01 -6.4619146E-02 5.8334001E-04
vertex -3.1999949E-01 -6.0246564E-02 5.8334001E-04
endloop
endfacet
facet normal 6.6753972E-01 7.4457419E-01 0.0000000E+00
outer loop
vertex -3.1999949E-01 -6.0246564E-02 3.4449991E-02
vertex -3.1512231E-01 -6.4619146E-02 3.4449991E-02
vertex -3.1999949E-01 -6.0246564E-02 5.8334001E-04
endloop
endfacet
facet normal 7.8520823E-01 6.1923176E-01 0.0000000E+00
outer loop
vertex -3.1512231E-01 -6.4619146E-02 3.4449991E-02
vertex -3.1106615E-01 -6.9762498E-02 3.4449991E-02
vertex -3.1512231E-01 -6.4619146E-02 5.8334001E-04
endloop
endfacet
facet normal 8.7967432E-01 4.7557661E-01 0.0000000E+00
outer loop
vertex -3.1106615E-01 -6.9762498E-02 3.4449991E-02
vertex -3.0795097E-01 -7.5524643E-02 3.4449991E-02
vertex -3.1106615E-01 -6.9762498E-02 5.8334001E-04
endloop
endfacet
facet normal 9.4813156E-01 3.1787816E-01 0.0000000E+00
outer loop
vertex -3.0795097E-01 -7.5524643E-02 3.4449991E-02
vertex -3.0586877E-01 -8.1735194E-02 3.4449991E-02
vertex -3.0795097E-01 -7.5524643E-02 5.8334001E-04
endloop
endfacet
facet normal 9.8856825E-01 1.5077446E-01 0.0000000E+00
outer loop
vertex -3.0586877E-01 -8.1735194E-02 3.4449991E-02
vertex -3.0488116E-01 -8.8210620E-02 3.4449991E-02
vertex -3.0586877E-01 -8.1735194E-02 5.8334001E-04
endloop
endfacet
facet normal 9.3410230E-01 -3.5700563E-01 0.0000000E+00
outer loop
vertex -3.0627316E-01 -1.0118829E-01 3.4449991E-02
vertex -3.0861166E-01 -1.0730695E-01 3.4449991E-02
vertex -3.0627316E-01 -1.0118829E-01 5.8334001E-04
endloop
endfacet
facet normal 8.5914868E-01 -5.1172614E-01 0.0000000E+00
outer loop
vertex -3.0861166E-01 -1.0730695E-01 3.4449991E-02
vertex -3.1196362E-01 -1.1293463E-01 3.4449991E-02
vertex -3.0861166E-01 -1.0730695E-01 5.8334001E-04
endloop
endfacet
facet normal 7.5879717E-01 -6.5132701E-01 0.0000000E+00
outer loop
vertex -3.1196362E-01 -1.1293463E-01 3.4449991E-02
vertex -3.1623000E-01 -1.1790497E-01 3.4449991E-02
vertex -3.1196362E-01 -1.1293463E-01 5.8334001E-04
endloop
endfacet
facet normal 6.3601911E-01 -7.7167320E-01 0.0000000E+00
outer loop
vertex -3.1623000E-01 -1.1790497E-01 3.4449991E-02
vertex -3.2128471E-01 -1.2207110E-01 3.4449991E-02
vertex -3.1623000E-01 -1.1790497E-01 5.8334001E-04
endloop
endfacet
facet normal 4.9444345E-01 -8.6920983E-01 0.0000000E+00
outer loop
vertex -3.2128471E-01 -1.2207110E-01 3.4449991E-02
vertex -3.2697830E-01 -1.2530985E-01 3.4449991E-02
vertex -3.2128471E-01 -1.2207110E-01 5.8334001E-04
endloop
endfacet
facet normal 3.3825034E-01 -9.4105613E-01 0.0000000E+00
outer loop
vertex -3.2697830E-01 -1.2530985E-01 3.4449991E-02
vertex -3.3314249E-01 -1.2752549E-01 3.4449991E-02
vertex -3.2697830E-01 -1.2530985E-01 5.8334001E-04
endloop
endfacet
facet normal 1.7205827E-01 -9.8508674E-01 0.0000000E+00
outer loop
vertex -3.3314249E-01 -1.2752549E-01 3.4449991E-02
vertex -3.3959511E-01 -1.2865253E-01 3.4449991E-02
vertex -3.3314249E-01 -1.2752549E-01 5.8334001E-04
endloop
endfacet
facet normal 7.8256143E-04 -9.9999976E-01 0.0000000E+00
outer loop
vertex -3.3959511E-01 -1.2865253E-01 3.4449991E-02
vertex -3.4614539E-01 -1.2865765E-01 3.4449991E-02
vertex -3.3959511E-01 -1.2865253E-01 5.8334001E-04
endloop
endfacet
facet normal -1.7051367E-01 -9.8535538E-01 -0.0000000E+00
outer loop
vertex -3.4614539E-01 -1.2865765E-01 3.4449991E-02
vertex -3.5259977E-01 -1.2754074E-01 3.4449991E-02
vertex -3.4614539E-01 -1.2865765E-01 5.8334001E-04
endloop
endfacet
facet normal -3.3677503E-01 -9.4158518E-01 -0.0000000E+00
outer loop
vertex -3.5259977E-01 -1.2754074E-01 3.4449991E-02
vertex -3.5876745E-01 -1.2533475E-01 3.4449991E-02
vertex -3.5259977E-01 -1.2754074E-01 5.8334001E-04
endloop
endfacet
facet normal -4.9307719E-01 -8.6998552E-01 -0.0000000E+00
outer loop
vertex -3.5876745E-01 -1.2533475E-01 3.4449991E-02
vertex -3.6446613E-01 -1.2210494E-01 3.4449991E-02
vertex -3.5876745E-01 -1.2533475E-01 5.8334001E-04
endloop
endfacet
facet normal -6.3481164E-01 -7.7266699E-01 -0.0000000E+00
outer loop
vertex -3.6446613E-01 -1.2210494E-01 3.4449991E-02
vertex -3.6952734E-01 -1.1794673E-01 3.4449991E-02
vertex -3.6446613E-01 -1.2210494E-01 5.8334001E-04
endloop
endfacet
facet normal 0.0000000E+00 0.0000000E+00 -1.0000000E+00
outer loop
vertex -4.1534108E-01 -1.2592895E-01 5.8334001E-04
vertex -4.5881253E-01 -1.2409401E-01 5.8334001E-04
vertex -3.9401275E-01 -1.2124819E-01 5.8334001E-04
endloop
endfacet
facet normal -0.0000000E+00 0.0000000E+00 -1.0000000E+00
outer loop
vertex -4.1534108E-01 -1.2592895E-01 5.8334001E-04
vertex -4.3715599E-01 -1.2688702E-01 5.8334001E-04
vertex -4.5881253E-01 -1.2409401E-01 5.8334001E-04
endloop
endfacet
facet normal 0.0000000E+00 0.0000000E+00 -1.0000000E+00
outer loop
vertex -4.5881253E-01 -1.2409401E-01 5.8334001E-04
vertex -4.7967055E-01 -1.1763253E-01 5.8334001E-04
vertex -3.9401275E-01 -1.2124819E-01 5.8334001E-04
endloop
endfacet
facet normal 0.0000000E+00 0.0000000E+00 -1.0000000E+00
outer loop
vertex -3.9401275E-01 -1.2124819E-01 5.8334001E-04
vertex -4.7967055E-01 -1.1763253E-01 5.8334001E-04
vertex -3.7380150E-01 -1.1298306E-01 5.8334001E-04
endloop
endfacet
facet normal -0.0000000E+00 0.0000000E+00 -1.0000000E+00
outer loop
vertex -3.7380150E-01 -1.1298306E-01 5.8334001E-04
vertex -4.7967055E-01 -1.1763253E-01 5.8334001E-04
vertex -4.9911341E-01 -1.0769356E-01 5.8334001E-04
endloop
endfacet
facet normal 0.0000000E+00 0.0000000E+00 -1.0000000E+00
outer loop
vertex -3.1999949E-01 -6.0246564E-02 5.8334001E-04
vertex -4.9911341E-01 -1.0769356E-01 5.8334001E-04
vertex -5.1656634E-01 -9.4570979E-02 5.8334001E-04
endloop
endfacet
facet normal 0.0000000E+00 0.0000000E+00 -1.0000000E+00
outer loop
vertex -5.3151339E-01 -7.8652650E-02 5.8334001E-04
vertex -3.1999949E-01 -6.0246564E-02 5.8334001E-04
vertex -5.1656634E-01 -9.4570979E-02 5.8334001E-04
endloop
endfacet
facet normal 0.0000000E+00 0.0000000E+00 -1.0000000E+00
outer loop
vertex -5.3151339E-01 -7.8652650E-02 5.8334001E-04
vertex -5.4351270E-01 -6.0409199E-02 5.8334001E-04
vertex -3.1999949E-01 -6.0246564E-02 5.8334001E-04
endloop
endfacet
facet normal -0.0000000E+00 0.0000000E+00 -1.0000000E+00
outer loop
vertex -3.1999949E-01 -6.0246564E-02 5.8334001E-04
vertex -5.4351270E-01 -6.0409199E-02 5.8334001E-04
vertex -5.5220956E-01 -4.0379930E-02 5.8334001E-04
endloop
endfacet
facet normal -0.0000000E+00 0.0000000E+00 -1.0000000E+00
outer loop
vertex -3.1133181E-01 -4.0204644E-02 5.8334001E-04
vertex -5.5220956E-01 -4.0379930E-02 5.8334001E-04
vertex -5.5734682E-01 -1.9156924E-02 5.8334001E-04
endloop
endfacet
facet normal -0.0000000E+00 0.0000000E+00 -1.0000000E+00
outer loop
vertex -3.0622539E-01 -1.8974194E-02 5.8334001E-04
vertex -5.5734682E-01 -1.9156924E-02 5.8334001E-04
vertex -5.5877274E-01 2.6323926E-03 5.8334001E-04
endloop
endfacet
facet normal -0.0000000E+00 0.0000000E+00 -1.0000000E+00
outer loop
vertex -3.0483124E-01 2.8171723E-03 5.8334001E-04
vertex -5.5877274E-01 2.6323926E-03 5.8334001E-04
vertex -5.5644500E-01 2.4343889E-02 5.8334001E-04
endloop
endfacet
facet normal -0.0000000E+00 0.0000000E+00 -9.9999994E-01
outer loop
vertex -3.0719057E-01 2.4525257E-02 5.8334001E-04
vertex -5.5644500E-01 2.4343889E-02 5.8334001E-04
vertex -5.5043250E-01 4.5335725E-02 5.8334001E-04
endloop
endfacet
facet normal -0.0000000E+00 0.0000000E+00 -1.0000000E+00
outer loop
vertex -3.1323358E-01 4.5508318E-02 5.8334001E-04
vertex -5.5043250E-01 4.5335725E-02 5.8334001E-04
vertex -5.4091299E-01 6.4987347E-02 5.8334001E-04
endloop
endfacet
facet normal -0.0000000E+00 0.0000000E+00 -1.0000000E+00
outer loop
vertex -3.2278171E-01 6.5146074E-02 5.8334001E-04
vertex -5.4091299E-01 6.4987347E-02 5.8334001E-04
vertex -5.2816784E-01 8.2717791E-02 5.8334001E-04
endloop
endfacet
facet normal -0.0000000E+00 0.0000000E+00 -1.0000000E+00
outer loop
vertex -3.3555263E-01 8.2857952E-02 5.8334001E-04
vertex -5.2816784E-01 8.2717791E-02 5.8334001E-04
vertex -5.1257390E-01 9.8002955E-02 5.8334001E-04
endloop
endfacet
facet normal -0.0000000E+00 0.0000000E+00 -1.0000000E+00
outer loop
vertex -3.5116881E-01 9.8120406E-02 5.8334001E-04
vertex -5.1257390E-01 9.8002955E-02 5.8334001E-04
vertex -4.9459207E-01 1.1039092E-01 5.8334001E-04
endloop
endfacet
facet normal -0.0000000E+00 0.0000000E+00 -1.0000000E+00
outer loop
vertex -3.6916864E-01 1.1048218E-01 5.8334001E-04
vertex -4.9459207E-01 1.1039092E-01 5.8334001E-04
vertex -4.7475401E-01 1.1951549E-01 5.8334001E-04
endloop
endfacet
facet normal -0.0000000E+00 0.0000000E+00 -1.0000000E+00
outer loop
vertex -3.8901997E-01 1.1957786E-01 5.8334001E-04
vertex -4.7475401E-01 1.1951549E-01 5.8334001E-04
vertex -4.5364612E-01 1.2510693E-01 5.8334001E-04
endloop
endfacet
facet normal -0.0000000E+00 0.0000000E+00 -1.0000000E+00
outer loop
vertex -4.1013598E-01 1.2513861E-01 5.8334001E-04
vertex -4.5364612E-01 1.2510693E-01 5.8334001E-04
vertex -4.3189242E-01 1.2699997E-01 5.8334001E-04
endloop
endfacet
facet normal 0.0000000E+00 -0.0000000E+00 -9.9999994E-01
outer loop
vertex -4.1013598E-01 1.2513861E-01 5.8334001E-04
vertex -3.8901997E-01 1.1957786E-01 5.8334001E-04
vertex -4.5364612E-01 1.2510693E-01 5.8334001E-04
endloop
endfacet
facet normal 0.0000000E+00 -0.0000000E+00 -1.0000000E+00
outer loop
vertex -3.8901997E-01 1.1957786E-01 5.8334001E-04
vertex -3.6916864E-01 1.1048218E-01 5.8334001E-04
vertex -4.7475401E-01 1.1951549E-01 5.8334001E-04
endloop
endfacet
facet normal 0.0000000E+00 -0.0000000E+00 -1.0000000E+00
outer loop
vertex -3.6916864E-01 1.1048218E-01 5.8334001E-04
vertex -3.5116881E-01 9.8120406E-02 5.8334001E-04
vertex -4.9459207E-01 1.1039092E-01 5.8334001E-04
endloop
endfacet
facet normal 0.0000000E+00 -0.0000000E+00 -1.0000000E+00
outer loop
vertex -3.5116881E-01 9.8120406E-02 5.8334001E-04
vertex -3.3555263E-01 8.2857952E-02 5.8334001E-04
vertex -5.1257390E-01 9.8002955E-02 5.8334001E-04
endloop
endfacet
facet normal 0.0000000E+00 -0.0000000E+00 -1.0000000E+00
outer loop
vertex -3.3555263E-01 8.2857952E-02 5.8334001E-04
vertex -3.2278171E-01 6.5146074E-02 5.8334001E-04
vertex -5.2816784E-01 8.2717791E-02 5.8334001E-04
endloop
endfacet
facet normal 0.0000000E+00 -0.0000000E+00 -1.0000000E+00
outer loop
vertex -3.2278171E-01 6.5146074E-02 5.8334001E-04
vertex -3.1323358E-01 4.5508318E-02 5.8334001E-04
vertex -5.4091299E-01 6.4987347E-02 5.8334001E-04
endloop
endfacet
facet normal 0.0000000E+00 -0.0000000E+00 -1.0000000E+00
outer loop
vertex -3.1323358E-01 4.5508318E-02 5.8334001E-04
vertex -3.0719057E-01 2.4525257E-02 5.8334001E-04
vertex -5.5043250E-01 4.5335725E-02 5.8334001E-04
endloop
endfacet
facet normal 0.0000000E+00 -0.0000000E+00 -1.0000000E+00
outer loop
vertex -3.0719057E-01 2.4525257E-02 5.8334001E-04
vertex -3.0483124E-01 2.8171723E-03 5.8334001E-04
vertex -5.5644500E-01 2.4343889E-02 5.8334001E-04
endloop
endfacet
facet normal 0.0000000E+00 0.0000000E+00 -1.0000000E+00
outer loop
vertex -3.0483124E-01 2.8171723E-03 5.8334001E-04
vertex -3.0622539E-01 -1.8974194E-02 5.8334001E-04
vertex -5.5877274E-01 2.6323926E-03 5.8334001E-04
endloop
endfacet
facet normal 0.0000000E+00 0.0000000E+00 -1.0000000E+00
outer loop
vertex -3.0622539E-01 -1.8974194E-02 5.8334001E-04
vertex -3.1133181E-01 -4.0204644E-02 5.8334001E-04
vertex -5.5734682E-01 -1.9156924E-02 5.8334001E-04
endloop
endfacet
facet normal 0.0000000E+00 0.0000000E+00 -1.0000000E+00
outer loop
vertex -3.1133181E-01 -4.0204644E-02 5.8334001E-04
vertex -3.1999949E-01 -6.0246564E-02 5.8334001E-04
vertex -5.5220956E-01 -4.0379930E-02 5.8334001E-04
endloop
endfacet
facet normal -0.0000000E+00 -0.0000000E+00 -9.9999994E-01
outer loop
vertex -3.1512231E-01 -6.4619146E-02 5.8334001E-04
vertex -3.1106615E-01 -6.9762498E-02 5.8334001E-04
vertex -3.1999949E-01 -6.0246564E-02 5.8334001E-04
endloop
endfacet
facet normal 0.0000000E+00 0.0000000E+00 -1.0000000E+00
outer loop
vertex -3.1999949E-01 -6.0246564E-02 5.8334001E-04
vertex -3.1106615E-01 -6.9762498E-02 5.8334001E-04
vertex -3.0795097E-01 -7.5524643E-02 5.8334001E-04
endloop
endfacet
facet normal 0.0000000E+00 0.0000000E+00 -1.0000000E+00
outer loop
vertex -3.0586877E-01 -8.1735194E-02 5.8334001E-04
vertex -3.1999949E-01 -6.0246564E-02 5.8334001E-04
vertex -3.0795097E-01 -7.5524643E-02 5.8334001E-04
endloop
endfacet
facet normal -0.0000000E+00 -0.0000000E+00 -1.0000000E+00
outer loop
vertex -3.0586877E-01 -8.1735194E-02 5.8334001E-04
vertex -3.0488116E-01 -8.8210620E-02 5.8334001E-04
vertex -3.1999949E-01 -6.0246564E-02 5.8334001E-04
endloop
endfacet
facet normal 0.0000000E+00 0.0000000E+00 -9.9999994E-01
outer loop
vertex -3.1999949E-01 -6.0246564E-02 5.8334001E-04
vertex -3.0488116E-01 -8.8210620E-02 5.8334001E-04
vertex -3.0501729E-01 -9.4759502E-02 5.8334001E-04
endloop
endfacet
facet normal 0.0000000E+00 0.0000000E+00 -1.0000000E+00
outer loop
vertex -3.0627316E-01 -1.0118829E-01 5.8334001E-04
vertex -3.1999949E-01 -6.0246564E-02 5.8334001E-04
vertex -3.0501729E-01 -9.4759502E-02 5.8334001E-04
endloop
endfacet
facet normal -0.0000000E+00 0.0000000E+00 -1.0000000E+00
outer loop
vertex -3.0627316E-01 -1.0118829E-01 5.8334001E-04
vertex -3.0861166E-01 -1.0730695E-01 5.8334001E-04
vertex -3.1999949E-01 -6.0246564E-02 5.8334001E-04
endloop
endfacet
facet normal 0.0000000E+00 0.0000000E+00 -1.0000000E+00
outer loop
vertex -3.1999949E-01 -6.0246564E-02 5.8334001E-04
vertex -3.0861166E-01 -1.0730695E-01 5.8334001E-04
vertex -3.1196362E-01 -1.1293463E-01 5.8334001E-04
endloop
endfacet
facet normal 0.0000000E+00 0.0000000E+00 -9.9999994E-01
outer loop
vertex -3.7380150E-01 -1.1298306E-01 5.8334001E-04
vertex -3.1196362E-01 -1.1293463E-01 5.8334001E-04
vertex -3.1623000E-01 -1.1790497E-01 5.8334001E-04
endloop
endfacet
facet normal 0.0000000E+00 0.0000000E+00 -1.0000000E+00
outer loop
vertex -3.6952734E-01 -1.1794673E-01 5.8334001E-04
vertex -3.1623000E-01 -1.1790497E-01 5.8334001E-04
vertex -3.2128471E-01 -1.2207110E-01 5.8334001E-04
endloop
endfacet
facet normal 0.0000000E+00 0.0000000E+00 -1.0000000E+00
outer loop
vertex -3.6446613E-01 -1.2210494E-01 5.8334001E-04
vertex -3.2128471E-01 -1.2207110E-01 5.8334001E-04
vertex -3.2697830E-01 -1.2530985E-01 5.8334001E-04
endloop
endfacet
facet normal 0.0000000E+00 0.0000000E+00 -9.9999994E-01
outer loop
vertex -3.5876745E-01 -1.2533475E-01 5.8334001E-04
vertex -3.2697830E-01 -1.2530985E-01 5.8334001E-04
vertex -3.3314249E-01 -1.2752549E-01 5.8334001E-04
endloop
endfacet
facet normal 0.0000000E+00 0.0000000E+00 -1.0000000E+00
outer loop
vertex -3.5259977E-01 -1.2754074E-01 5.8334001E-04
vertex -3.3314249E-01 -1.2752549E-01 5.8334001E-04
vertex -3.3959511E-01 -1.2865253E-01 5.8334001E-04
endloop
endfacet
facet normal 0.0000000E+00 0.0000000E+00 -9.9999994E-01
outer loop
vertex -3.4614539E-01 -1.2865765E-01 5.8334001E-04
vertex -3.5259977E-01 -1.2754074E-01 5.8334001E-04
vertex -3.3959511E-01 -1.2865253E-01 5.8334001E-04
endloop
endfacet
facet normal 0.0000000E+00 0.0000000E+00 -1.0000000E+00
outer loop
vertex -3.5259977E-01 -1.2754074E-01 5.8334001E-04
vertex -3.5876745E-01 -1.2533475E-01 5.8334001E-04
vertex -3.3314249E-01 -1.2752549E-01 5.8334001E-04
endloop
endfacet
facet normal 0.0000000E+00 0.0000000E+00 -1.0000000E+00
outer loop
vertex -3.5876745E-01 -1.2533475E-01 5.8334001E-04
vertex -3.6446613E-01 -1.2210494E-01 5.8334001E-04
vertex -3.2697830E-01 -1.2530985E-01 5.8334001E-04
endloop
endfacet
facet normal 0.0000000E+00 0.0000000E+00 -9.9999994E-01
outer loop
vertex -3.6446613E-01 -1.2210494E-01 5.8334001E-04
vertex -3.6952734E-01 -1.1794673E-01 5.8334001E-04
vertex -3.2128471E-01 -1.2207110E-01 5.8334001E-04
endloop
endfacet
facet normal 0.0000000E+00 0.0000000E+00 -1.0000000E+00
outer loop
vertex -3.6952734E-01 -1.1794673E-01 5.8334001E-04
vertex -3.7380150E-01 -1.1298306E-01 5.8334001E-04
vertex -3.1623000E-01 -1.1790497E-01 5.8334001E-04
endloop
endfacet
facet normal 0.0000000E+00 0.0000000E+00 -1.0000000E+00
outer loop
vertex -4.9911341E-01 -1.0769356E-01 5.8334001E-04
vertex -3.1999949E-01 -6.0246564E-02 5.8334001E-04
vertex -3.7380150E-01 -1.1298306E-01 5.8334001E-04
endloop
endfacet
facet normal 0.0000000E+00 0.0000000E+00 -9.9999994E-01
outer loop
vertex -3.7380150E-01 -1.1298306E-01 5.8334001E-04
vertex -3.1999949E-01 -6.0246564E-02 5.8334001E-04
vertex -3.1196362E-01 -1.1293463E-01 5.8334001E-04
endloop
endfacet
facet normal 1.9601305E-01 9.8060131E-01 0.0000000E+00
outer loop
vertex -3.8120839E-01 1.5240000E-01 1.3605000E-01
vertex 9.9999999E-09 7.6200001E-02 1.3605000E-01
vertex -3.8120839E-01 1.5240000E-01 3.4449991E-02
endloop
endfacet
facet normal 1.9601305E-01 9.8060131E-01 0.0000000E+00
outer loop
vertex -3.8120839E-01 1.5240000E-01 3.4449991E-02
vertex 9.9999999E-09 7.6200001E-02 1.3605000E-01
vertex 9.9999999E-09 7.6200001E-02 3.4449991E-02
endloop
endfacet
facet normal 2.7944747E-01 9.6016103E-01 -0.0000000E+00
outer loop
vertex 9.9999999E-09 7.6200001E-02 3.4449991E-02
vertex 9.9999999E-09 7.6200001E-02 1.3605000E-01
vertex 1.2977880E-02 7.2422892E-02 3.4449991E-02
endloop
endfacet
facet normal 2.7944747E-01 9.6016103E-01 -0.0000000E+00
outer loop
vertex 1.2977880E-02 7.2422892E-02 3.4449991E-02
vertex 9.9999999E-09 7.6200001E-02 1.3605000E-01
vertex 1.2977880E-02 7.2422892E-02 1.3605000E-01
endloop
endfacet
facet normal 4.3898347E-01 8.9849508E-01 -0.0000000E+00
outer loop
vertex 2.5122380E-02 6.6489376E-02 3.4449991E-02
vertex 1.2977880E-02 7.2422892E-02 1.3605000E-01
vertex 2.5122380E-02 6.6489376E-02 1.3605000E-01
endloop
endfacet
facet normal 5.8567804E-01 8.1054366E-01 -0.0000000E+00
outer loop
vertex 3.6078159E-02 5.8573011E-02 3.4449991E-02
vertex 2.5122380E-02 6.6489376E-02 1.3605000E-01
vertex 3.6078159E-02 5.8573011E-02 1.3605000E-01
endloop
endfacet
facet normal 7.1524674E-01 6.9887215E-01 -0.0000000E+00
outer loop
vertex 4.5524430E-02 4.8905414E-02 3.4449991E-02
vertex 3.6078159E-02 5.8573011E-02 1.3605000E-01
vertex 4.5524430E-02 4.8905414E-02 1.3605000E-01
endloop
endfacet
facet normal 8.2388157E-01 5.6676197E-01 -0.0000000E+00
outer loop
vertex 5.3185049E-02 3.7769444E-02 3.4449991E-02
vertex 4.5524430E-02 4.8905414E-02 1.3605000E-01
vertex 5.3185049E-02 3.7769444E-02 1.3605000E-01
endloop
endfacet
facet normal 9.0841711E-01 4.1806483E-01 -0.0000000E+00
outer loop
vertex 5.8835808E-02 2.5490856E-02 3.4449991E-02
vertex 5.3185049E-02 3.7769444E-02 1.3605000E-01
vertex 5.8835808E-02 2.5490856E-02 1.3605000E-01
endloop
endfacet
facet normal 9.6637726E-01 2.5712863E-01 -0.0000000E+00
outer loop
vertex 6.2311269E-02 1.2428885E-02 3.4449991E-02
vertex 5.8835808E-02 2.5490856E-02 1.3605000E-01
vertex 6.2311269E-02 1.2428885E-02 1.3605000E-01
endloop
endfacet
facet normal 9.9605846E-01 8.8698305E-02 -0.0000000E+00
outer loop
vertex 6.3510157E-02 -1.0343075E-03 3.4449991E-02
vertex 6.2311269E-02 1.2428885E-02 1.3605000E-01
vertex 6.3510157E-02 -1.0343075E-03 1.3605000E-01
endloop
endfacet
facet normal 9.9660230E-01 -8.2363643E-02 0.0000000E+00
outer loop
vertex 6.2396891E-02 -1.4504853E-02 3.4449991E-02
vertex 6.3510157E-02 -1.0343075E-03 1.3605000E-01
vertex 6.2396891E-02 -1.4504853E-02 1.3605000E-01
endloop
endfacet
facet normal 9.6799082E-01 -2.5098562E-01 0.0000000E+00
outer loop
vertex 5.9004460E-02 -2.7588641E-02 3.4449991E-02
vertex 6.2396891E-02 -1.4504853E-02 1.3605000E-01
vertex 5.9004460E-02 -2.7588641E-02 1.3605000E-01
endloop
endfacet
facet normal 9.1105860E-01 -4.1227695E-01 0.0000000E+00
outer loop
vertex 5.3431939E-02 -3.9902918E-02 3.4449991E-02
vertex 5.9004460E-02 -2.7588641E-02 1.3605000E-01
vertex 5.3431939E-02 -3.9902918E-02 1.3605000E-01
endloop
endfacet
facet normal 8.2746583E-01 -5.6151617E-01 0.0000000E+00
outer loop
vertex 4.5842178E-02 -5.1087402E-02 3.4449991E-02
vertex 5.3431939E-02 -3.9902918E-02 1.3605000E-01
vertex 4.5842178E-02 -5.1087402E-02 1.3605000E-01
endloop
endfacet
facet normal 7.1967846E-01 -6.9430751E-01 0.0000000E+00
outer loop
vertex 3.6457639E-02 -6.0814865E-02 3.4449991E-02
vertex 4.5842178E-02 -5.1087402E-02 1.3605000E-01
vertex 3.6457639E-02 -6.0814865E-02 1.3605000E-01
endloop
endfacet
facet normal 5.9082866E-01 -8.0679703E-01 0.0000000E+00
outer loop
vertex 2.5552670E-02 -6.8800725E-02 3.4449991E-02
vertex 3.6457639E-02 -6.0814865E-02 1.3605000E-01
vertex 2.5552670E-02 -6.8800725E-02 1.3605000E-01
endloop
endfacet
facet normal 4.4468454E-01 -8.9568728E-01 0.0000000E+00
outer loop
vertex 1.3446010E-02 -7.4811354E-02 3.4449991E-02
vertex 2.5552670E-02 -6.8800725E-02 1.3605000E-01
vertex 1.3446010E-02 -7.4811354E-02 1.3605000E-01
endloop
endfacet
facet normal 2.8554875E-01 -9.5836413E-01 0.0000000E+00
outer loop
vertex 4.9249001E-04 -7.8670911E-02 3.4449991E-02
vertex 1.3446010E-02 -7.4811354E-02 1.3605000E-01
vertex 4.9249001E-04 -7.8670911E-02 1.3605000E-01
endloop
endfacet
facet normal 2.8554875E-01 -9.5836413E-01 0.0000000E+00
outer loop
vertex 4.9249001E-04 -7.8670911E-02 3.4449991E-02
vertex 1.3446010E-02 -7.4811354E-02 3.4449991E-02
vertex 1.3446010E-02 -7.4811354E-02 1.3605000E-01
endloop
endfacet
facet normal 4.4468454E-01 -8.9568728E-01 0.0000000E+00
outer loop
vertex 1.3446010E-02 -7.4811354E-02 3.4449991E-02
vertex 2.5552670E-02 -6.8800725E-02 3.4449991E-02
vertex 2.5552670E-02 -6.8800725E-02 1.3605000E-01
endloop
endfacet
facet normal 5.9082866E-01 -8.0679703E-01 0.0000000E+00
outer loop
vertex 2.5552670E-02 -6.8800725E-02 3.4449991E-02
vertex 3.6457639E-02 -6.0814865E-02 3.4449991E-02
vertex 3.6457639E-02 -6.0814865E-02 1.3605000E-01
endloop
endfacet
facet normal 7.1967846E-01 -6.9430751E-01 0.0000000E+00
outer loop
vertex 3.6457639E-02 -6.0814865E-02 3.4449991E-02
vertex 4.5842178E-02 -5.1087402E-02 3.4449991E-02
vertex 4.5842178E-02 -5.1087402E-02 1.3605000E-01
endloop
endfacet
facet normal 8.2746583E-01 -5.6151617E-01 0.0000000E+00
outer loop
vertex 4.5842178E-02 -5.1087402E-02 3.4449991E-02
vertex 5.3431939E-02 -3.9902918E-02 3.4449991E-02
vertex 5.3431939E-02 -3.9902918E-02 1.3605000E-01
endloop
endfacet
facet normal 9.1105860E-01 -4.1227695E-01 0.0000000E+00
outer loop
vertex 5.3431939E-02 -3.9902918E-02 3.4449991E-02
vertex 5.9004460E-02 -2.7588641E-02 3.4449991E-02
vertex 5.9004460E-02 -2.7588641E-02 1.3605000E-01
endloop
endfacet
facet normal 9.6799082E-01 -2.5098562E-01 0.0000000E+00
outer loop
vertex 5.9004460E-02 -2.7588641E-02 3.4449991E-02
vertex 6.2396891E-02 -1.4504853E-02 3.4449991E-02
vertex 6.2396891E-02 -1.4504853E-02 1.3605000E-01
endloop
endfacet
facet normal 9.9660230E-01 -8.2363643E-02 0.0000000E+00
outer loop
vertex 6.2396891E-02 -1.4504853E-02 3.4449991E-02
vertex 6.3510157E-02 -1.0343075E-03 3.4449991E-02
vertex 6.3510157E-02 -1.0343075E-03 1.3605000E-01
endloop
endfacet
facet normal 9.9605846E-01 8.8698305E-02 0.0000000E+00
outer loop
vertex 6.3510157E-02 -1.0343075E-03 3.4449991E-02
vertex 6.2311269E-02 1.2428885E-02 3.4449991E-02
vertex 6.2311269E-02 1.2428885E-02 1.3605000E-01
endloop
endfacet
facet normal 9.6637726E-01 2.5712863E-01 0.0000000E+00
outer loop
vertex 6.2311269E-02 1.2428885E-02 3.4449991E-02
vertex 5.8835808E-02 2.5490856E-02 3.4449991E-02
vertex 5.8835808E-02 2.5490856E-02 1.3605000E-01
endloop
endfacet
facet normal 9.0841711E-01 4.1806483E-01 0.0000000E+00
outer loop
vertex 5.8835808E-02 2.5490856E-02 3.4449991E-02
vertex 5.3185049E-02 3.7769444E-02 3.4449991E-02
vertex 5.3185049E-02 3.7769444E-02 1.3605000E-01
endloop
endfacet
facet normal 8.2388157E-01 5.6676197E-01 0.0000000E+00
outer loop
vertex 5.3185049E-02 3.7769444E-02 3.4449991E-02
vertex 4.5524430E-02 4.8905414E-02 3.4449991E-02
vertex 4.5524430E-02 4.8905414E-02 1.3605000E-01
endloop
endfacet
facet normal 7.1524674E-01 6.9887215E-01 0.0000000E+00
outer loop
vertex 4.5524430E-02 4.8905414E-02 3.4449991E-02
vertex 3.6078159E-02 5.8573011E-02 3.4449991E-02
vertex 3.6078159E-02 5.8573011E-02 1.3605000E-01
endloop
endfacet
facet normal 5.8567804E-01 8.1054366E-01 0.0000000E+00
outer loop
vertex 3.6078159E-02 5.8573011E-02 3.4449991E-02
vertex 2.5122380E-02 6.6489376E-02 3.4449991E-02
vertex 2.5122380E-02 6.6489376E-02 1.3605000E-01
endloop
endfacet
facet normal 4.3898347E-01 8.9849508E-01 0.0000000E+00
outer loop
vertex 2.5122380E-02 6.6489376E-02 3.4449991E-02
vertex 1.2977880E-02 7.2422892E-02 3.4449991E-02
vertex 1.2977880E-02 7.2422892E-02 1.3605000E-01
endloop
endfacet
facet normal 1.8965697E-01 -9.8185039E-01 0.0000000E+00
outer loop
vertex 4.9249001E-04 -7.8670911E-02 1.3605000E-01
vertex -3.8120154E-01 -1.5240000E-01 1.3605000E-01
vertex 4.9249001E-04 -7.8670911E-02 3.4449991E-02
endloop
endfacet
facet normal 1.8965697E-01 -9.8185039E-01 0.0000000E+00
outer loop
vertex 4.9249001E-04 -7.8670911E-02 3.4449991E-02
vertex -3.8120154E-01 -1.5240000E-01 1.3605000E-01
vertex -3.8120154E-01 -1.5240000E-01 3.4449991E-02
endloop
endfacet
facet normal -0.0000000E+00 -1.0000000E+00 -0.0000000E+00
outer loop
vertex -3.8120154E-01 -1.5240000E-01 1.3605000E-01
vertex -6.0218841E-01 -1.5240000E-01 1.3605000E-01
vertex -3.8120154E-01 -1.5240000E-01 3.4449991E-02
endloop
endfacet
facet normal 0.0000000E+00 -1.0000000E+00 0.0000000E+00
outer loop
vertex -3.8120154E-01 -1.5240000E-01 3.4449991E-02
vertex -6.0218841E-01 -1.5240000E-01 1.3605000E-01
vertex -6.0218841E-01 -1.5240000E-01 3.4449991E-02
endloop
endfacet
facet normal -7.9690212E-01 -6.0410827E-01 -0.0000000E+00
outer loop
vertex -6.0218841E-01 -1.5240000E-01 1.3605000E-01
vertex -6.2455827E-01 -1.2289107E-01 1.3605000E-01
vertex -6.0218841E-01 -1.5240000E-01 3.4449991E-02
endloop
endfacet
facet normal -7.9690212E-01 -6.0410827E-01 0.0000000E+00
outer loop
vertex -6.0218841E-01 -1.5240000E-01 3.4449991E-02
vertex -6.2455827E-01 -1.2289107E-01 1.3605000E-01
vertex -6.2455827E-01 -1.2289107E-01 3.4449991E-02
endloop
endfacet
facet normal -8.8398170E-01 -4.6752155E-01 0.0000000E+00
outer loop
vertex -6.2455827E-01 -1.2289107E-01 3.4449991E-02
vertex -6.2455827E-01 -1.2289107E-01 1.3605000E-01
vertex -6.4187038E-01 -9.0157628E-02 1.3605000E-01
endloop
endfacet
facet normal -9.4786662E-01 -3.1866726E-01 0.0000000E+00
outer loop
vertex -6.4187038E-01 -9.0157628E-02 3.4449991E-02
vertex -6.4187038E-01 -9.0157628E-02 1.3605000E-01
vertex -6.5367049E-01 -5.5058539E-02 1.3605000E-01
endloop
endfacet
facet normal -9.8688042E-01 -1.6145271E-01 0.0000000E+00
outer loop
vertex -6.5367049E-01 -5.5058539E-02 3.4449991E-02
vertex -6.5367049E-01 -5.5058539E-02 1.3605000E-01
vertex -6.5964901E-01 -1.8514782E-02 1.3605000E-01
endloop
endfacet
facet normal -9.9999994E-01 0.0000000E+00 0.0000000E+00
outer loop
vertex -6.5964901E-01 -1.8514782E-02 3.4449991E-02
vertex -6.5964901E-01 -1.8514782E-02 1.3605000E-01
vertex -6.5964901E-01 1.8514782E-02 3.4449991E-02
endloop
endfacet
facet normal -9.8688042E-01 -1.6145271E-01 0.0000000E+00
outer loop
vertex -6.5964901E-01 -1.8514782E-02 3.4449991E-02
vertex -6.5367049E-01 -5.5058539E-02 3.4449991E-02
vertex -6.5964901E-01 -1.8514782E-02 1.3605000E-01
endloop
endfacet
facet normal -9.9999994E-01 0.0000000E+00 0.0000000E+00
outer loop
vertex -6.5964901E-01 -1.8514782E-02 1.3605000E-01
vertex -6.5964901E-01 1.8514782E-02 1.3605000E-01
vertex -6.5964901E-01 1.8514782E-02 3.4449991E-02
endloop
endfacet
facet normal -9.8688042E-01 1.6145271E-01 0.0000000E+00
outer loop
vertex -6.5964901E-01 1.8514782E-02 3.4449991E-02
vertex -6.5964901E-01 1.8514782E-02 1.3605000E-01
vertex -6.5367049E-01 5.5058539E-02 1.3605000E-01
endloop
endfacet
facet normal -9.4786662E-01 3.1866726E-01 0.0000000E+00
outer loop
vertex -6.5367049E-01 5.5058539E-02 3.4449991E-02
vertex -6.5367049E-01 5.5058539E-02 1.3605000E-01
vertex -6.4187038E-01 9.0157628E-02 1.3605000E-01
endloop
endfacet
facet normal -8.8398170E-01 4.6752155E-01 0.0000000E+00
outer loop
vertex -6.4187038E-01 9.0157628E-02 3.4449991E-02
vertex -6.4187038E-01 9.0157628E-02 1.3605000E-01
vertex -6.2455827E-01 1.2289107E-01 1.3605000E-01
endloop
endfacet
facet normal -7.9690212E-01 6.0410827E-01 0.0000000E+00
outer loop
vertex -6.2455827E-01 1.2289107E-01 3.4449991E-02
vertex -6.2455827E-01 1.2289107E-01 1.3605000E-01
vertex -6.0218841E-01 1.5240000E-01 1.3605000E-01
endloop
endfacet
facet normal -7.9690212E-01 6.0410827E-01 0.0000000E+00
outer loop
vertex -6.0218841E-01 1.5240000E-01 3.4449991E-02
vertex -6.2455827E-01 1.2289107E-01 3.4449991E-02
vertex -6.0218841E-01 1.5240000E-01 1.3605000E-01
endloop
endfacet
facet normal -8.8398170E-01 4.6752155E-01 0.0000000E+00
outer loop
vertex -6.2455827E-01 1.2289107E-01 3.4449991E-02
vertex -6.4187038E-01 9.0157628E-02 3.4449991E-02
vertex -6.2455827E-01 1.2289107E-01 1.3605000E-01
endloop
endfacet
facet normal -9.4786662E-01 3.1866726E-01 0.0000000E+00
outer loop
vertex -6.4187038E-01 9.0157628E-02 3.4449991E-02
vertex -6.5367049E-01 5.5058539E-02 3.4449991E-02
vertex -6.4187038E-01 9.0157628E-02 1.3605000E-01
endloop
endfacet
facet normal -9.8688042E-01 1.6145271E-01 0.0000000E+00
outer loop
vertex -6.5367049E-01 5.5058539E-02 3.4449991E-02
vertex -6.5964901E-01 1.8514782E-02 3.4449991E-02
vertex -6.5367049E-01 5.5058539E-02 1.3605000E-01
endloop
endfacet
facet normal -9.4786662E-01 -3.1866726E-01 0.0000000E+00
outer loop
vertex -6.5367049E-01 -5.5058539E-02 3.4449991E-02
vertex -6.4187038E-01 -9.0157628E-02 3.4449991E-02
vertex -6.5367049E-01 -5.5058539E-02 1.3605000E-01
endloop
endfacet
facet normal -8.8398170E-01 -4.6752155E-01 0.0000000E+00
outer loop
vertex -6.4187038E-01 -9.0157628E-02 3.4449991E-02
vertex -6.2455827E-01 -1.2289107E-01 3.4449991E-02
vertex -6.4187038E-01 -9.0157628E-02 1.3605000E-01
endloop
endfacet
facet normal -0.0000000E+00 1.0000000E+00 0.0000000E+00
outer loop
vertex -6.0218841E-01 1.5240000E-01 1.3605000E-01
vertex -3.8120839E-01 1.5240000E-01 1.3605000E-01
vertex -6.0218841E-01 1.5240000E-01 3.4449991E-02
endloop
endfacet
facet normal 0.0000000E+00 1.0000000E+00 0.0000000E+00
outer loop
vertex -6.0218841E-01 1.5240000E-01 3.4449991E-02
vertex -3.8120839E-01 1.5240000E-01 1.3605000E-01
vertex -3.8120839E-01 1.5240000E-01 3.4449991E-02
endloop
endfacet
facet normal -0.0000000E+00 0.0000000E+00 1.0000000E+00
outer loop
vertex -6.4187038E-01 9.0157628E-02 1.3605000E-01
vertex -6.5367049E-01 5.5058539E-02 1.3605000E-01
vertex -3.8120839E-01 1.5240000E-01 1.3605000E-01
endloop
endfacet
facet normal 0.0000000E+00 0.0000000E+00 1.0000000E+00
outer loop
vertex -6.2455827E-01 1.2289107E-01 1.3605000E-01
vertex -3.8120839E-01 1.5240000E-01 1.3605000E-01
vertex -6.0218841E-01 1.5240000E-01 1.3605000E-01
endloop
endfacet
facet normal -0.0000000E+00 0.0000000E+00 9.9999994E-01
outer loop
vertex -6.2455827E-01 1.2289107E-01 1.3605000E-01
vertex -6.4187038E-01 9.0157628E-02 1.3605000E-01
vertex -3.8120839E-01 1.5240000E-01 1.3605000E-01
endloop
endfacet
facet normal -0.0000000E+00 0.0000000E+00 1.0000000E+00
outer loop
vertex -6.5367049E-01 5.5058539E-02 1.3605000E-01
vertex -6.5964901E-01 1.8514782E-02 1.3605000E-01
vertex -3.8120839E-01 1.5240000E-01 1.3605000E-01
endloop
endfacet
facet normal 0.0000000E+00 0.0000000E+00 1.0000000E+00
outer loop
vertex -3.8120839E-01 1.5240000E-01 1.3605000E-01
vertex -6.5964901E-01 1.8514782E-02 1.3605000E-01
vertex 9.9999999E-09 7.6200001E-02 1.3605000E-01
endloop
endfacet
facet normal 0.0000000E+00 0.0000000E+00 1.0000000E+00
outer loop
vertex 9.9999999E-09 7.6200001E-02 1.3605000E-01
vertex -6.5964901E-01 1.8514782E-02 1.3605000E-01
vertex 6.2311269E-02 1.2428885E-02 1.3605000E-01
endloop
endfacet
facet normal 0.0000000E+00 0.0000000E+00 1.0000000E+00
outer loop
vertex 5.8835808E-02 2.5490856E-02 1.3605000E-01
vertex 9.9999999E-09 7.6200001E-02 1.3605000E-01
vertex 6.2311269E-02 1.2428885E-02 1.3605000E-01
endloop
endfacet
facet normal 0.0000000E+00 0.0000000E+00 9.9999994E-01
outer loop
vertex 5.8835808E-02 2.5490856E-02 1.3605000E-01
vertex 5.3185049E-02 3.7769444E-02 1.3605000E-01
vertex 9.9999999E-09 7.6200001E-02 1.3605000E-01
endloop
endfacet
facet normal 0.0000000E+00 0.0000000E+00 1.0000000E+00
outer loop
vertex 9.9999999E-09 7.6200001E-02 1.3605000E-01
vertex 5.3185049E-02 3.7769444E-02 1.3605000E-01
vertex 4.5524430E-02 4.8905414E-02 1.3605000E-01
endloop
endfacet
facet normal 0.0000000E+00 0.0000000E+00 1.0000000E+00
outer loop
vertex 3.6078159E-02 5.8573011E-02 1.3605000E-01
vertex 9.9999999E-09 7.6200001E-02 1.3605000E-01
vertex 4.5524430E-02 4.8905414E-02 1.3605000E-01
endloop
endfacet
facet normal 0.0000000E+00 0.0000000E+00 1.0000000E+00
outer loop
vertex 3.6078159E-02 5.8573011E-02 1.3605000E-01
vertex 2.5122380E-02 6.6489376E-02 1.3605000E-01
vertex 9.9999999E-09 7.6200001E-02 1.3605000E-01
endloop
endfacet
facet normal 0.0000000E+00 0.0000000E+00 1.0000000E+00
outer loop
vertex 9.9999999E-09 7.6200001E-02 1.3605000E-01
vertex 2.5122380E-02 6.6489376E-02 1.3605000E-01
vertex 1.2977880E-02 7.2422892E-02 1.3605000E-01
endloop
endfacet
facet normal 0.0000000E+00 0.0000000E+00 1.0000000E+00
outer loop
vertex -6.5964901E-01 1.8514782E-02 1.3605000E-01
vertex -6.5964901E-01 -1.8514782E-02 1.3605000E-01
vertex 6.2311269E-02 1.2428885E-02 1.3605000E-01
endloop
endfacet
facet normal 0.0000000E+00 0.0000000E+00 1.0000000E+00
outer loop
vertex 6.2311269E-02 1.2428885E-02 1.3605000E-01
vertex -6.5964901E-01 -1.8514782E-02 1.3605000E-01
vertex 4.9249001E-04 -7.8670911E-02 1.3605000E-01
endloop
endfacet
facet normal 0.0000000E+00 0.0000000E+00 1.0000000E+00
outer loop
vertex 6.3510157E-02 -1.0343075E-03 1.3605000E-01
vertex 4.9249001E-04 -7.8670911E-02 1.3605000E-01
vertex 6.2396891E-02 -1.4504853E-02 1.3605000E-01
endloop
endfacet
facet normal 0.0000000E+00 0.0000000E+00 1.0000000E+00
outer loop
vertex 6.3510157E-02 -1.0343075E-03 1.3605000E-01
vertex 6.2311269E-02 1.2428885E-02 1.3605000E-01
vertex 4.9249001E-04 -7.8670911E-02 1.3605000E-01
endloop
endfacet
facet normal 0.0000000E+00 0.0000000E+00 1.0000000E+00
outer loop
vertex 4.9249001E-04 -7.8670911E-02 1.3605000E-01
vertex -6.5964901E-01 -1.8514782E-02 1.3605000E-01
vertex -3.8120154E-01 -1.5240000E-01 1.3605000E-01
endloop
endfacet
facet normal 0.0000000E+00 0.0000000E+00 1.0000000E+00
outer loop
vertex -3.8120154E-01 -1.5240000E-01 1.3605000E-01
vertex -6.5964901E-01 -1.8514782E-02 1.3605000E-01
vertex -6.5367049E-01 -5.5058539E-02 1.3605000E-01
endloop
endfacet
facet normal -0.0000000E+00 -0.0000000E+00 1.0000000E+00
outer loop
vertex -6.4187038E-01 -9.0157628E-02 1.3605000E-01
vertex -3.8120154E-01 -1.5240000E-01 1.3605000E-01
vertex -6.5367049E-01 -5.5058539E-02 1.3605000E-01
endloop
endfacet
facet normal 0.0000000E+00 0.0000000E+00 1.0000000E+00
outer loop
vertex -6.4187038E-01 -9.0157628E-02 1.3605000E-01
vertex -6.2455827E-01 -1.2289107E-01 1.3605000E-01
vertex -3.8120154E-01 -1.5240000E-01 1.3605000E-01
endloop
endfacet
facet normal 0.0000000E+00 0.0000000E+00 1.0000000E+00
outer loop
vertex -3.8120154E-01 -1.5240000E-01 1.3605000E-01
vertex -6.2455827E-01 -1.2289107E-01 1.3605000E-01
vertex -6.0218841E-01 -1.5240000E-01 1.3605000E-01
endloop
endfacet
facet normal 0.0000000E+00 -0.0000000E+00 1.0000000E+00
outer loop
vertex 1.3446010E-02 -7.4811354E-02 1.3605000E-01
vertex 2.5552670E-02 -6.8800725E-02 1.3605000E-01
vertex 4.9249001E-04 -7.8670911E-02 1.3605000E-01
endloop
endfacet
facet normal 0.0000000E+00 0.0000000E+00 1.0000000E+00
outer loop
vertex 4.9249001E-04 -7.8670911E-02 1.3605000E-01
vertex 2.5552670E-02 -6.8800725E-02 1.3605000E-01
vertex 3.6457639E-02 -6.0814865E-02 1.3605000E-01
endloop
endfacet
facet normal 0.0000000E+00 0.0000000E+00 1.0000000E+00
outer loop
vertex 4.5842178E-02 -5.1087402E-02 1.3605000E-01
vertex 4.9249001E-04 -7.8670911E-02 1.3605000E-01
vertex 3.6457639E-02 -6.0814865E-02 1.3605000E-01
endloop
endfacet
facet normal 0.0000000E+00 -0.0000000E+00 1.0000000E+00
outer loop
vertex 4.5842178E-02 -5.1087402E-02 1.3605000E-01
vertex 5.3431939E-02 -3.9902918E-02 1.3605000E-01
vertex 4.9249001E-04 -7.8670911E-02 1.3605000E-01
endloop
endfacet
facet normal 0.0000000E+00 0.0000000E+00 1.0000000E+00
outer loop
vertex 4.9249001E-04 -7.8670911E-02 1.3605000E-01
vertex 5.3431939E-02 -3.9902918E-02 1.3605000E-01
vertex 5.9004460E-02 -2.7588641E-02 1.3605000E-01
endloop
endfacet
facet normal 0.0000000E+00 0.0000000E+00 1.0000000E+00
outer loop
vertex 6.2396891E-02 -1.4504853E-02 1.3605000E-01
vertex 4.9249001E-04 -7.8670911E-02 1.3605000E-01
vertex 5.9004460E-02 -2.7588641E-02 1.3605000E-01
endloop
endfacet
facet normal 0.0000000E+00 0.0000000E+00 -1.0000000E+00
outer loop
vertex -3.1999949E-01 -6.0246564E-02 3.4449991E-02
vertex -3.1133181E-01 -4.0204644E-02 3.4449991E-02
vertex -3.1512231E-01 -6.4619146E-02 3.4449991E-02
endloop
endfacet
facet normal 0.0000000E+00 0.0000000E+00 -1.0000000E+00
outer loop
vertex -3.1512231E-01 -6.4619146E-02 3.4449991E-02
vertex -3.1133181E-01 -4.0204644E-02 3.4449991E-02
vertex -3.1106615E-01 -6.9762498E-02 3.4449991E-02
endloop
endfacet
facet normal 0.0000000E+00 0.0000000E+00 -1.0000000E+00
outer loop
vertex -3.1106615E-01 -6.9762498E-02 3.4449991E-02
vertex -3.1133181E-01 -4.0204644E-02 3.4449991E-02
vertex 1.3446010E-02 -7.4811354E-02 3.4449991E-02
endloop
endfacet
facet normal 0.0000000E+00 0.0000000E+00 -1.0000000E+00
outer loop
vertex -3.0795097E-01 -7.5524643E-02 3.4449991E-02
vertex 1.3446010E-02 -7.4811354E-02 3.4449991E-02
vertex 4.9249001E-04 -7.8670911E-02 3.4449991E-02
endloop
endfacet
facet normal 0.0000000E+00 0.0000000E+00 -1.0000000E+00
outer loop
vertex -3.0586877E-01 -8.1735194E-02 3.4449991E-02
vertex 4.9249001E-04 -7.8670911E-02 3.4449991E-02
vertex -3.0488116E-01 -8.8210620E-02 3.4449991E-02
endloop
endfacet
facet normal 0.0000000E+00 0.0000000E+00 -9.9999994E-01
outer loop
vertex -3.0586877E-01 -8.1735194E-02 3.4449991E-02
vertex -3.0795097E-01 -7.5524643E-02 3.4449991E-02
vertex 4.9249001E-04 -7.8670911E-02 3.4449991E-02
endloop
endfacet
facet normal 0.0000000E+00 0.0000000E+00 -1.0000000E+00
outer loop
vertex 6.3510157E-02 -1.0343075E-03 3.4449991E-02
vertex 6.2396891E-02 -1.4504853E-02 3.4449991E-02
vertex -3.0622539E-01 -1.8974194E-02 3.4449991E-02
endloop
endfacet
facet normal 0.0000000E+00 -0.0000000E+00 -9.9999994E-01
outer loop
vertex -3.0483124E-01 2.8171723E-03 3.4449991E-02
vertex 6.3510157E-02 -1.0343075E-03 3.4449991E-02
vertex -3.0622539E-01 -1.8974194E-02 3.4449991E-02
endloop
endfacet
facet normal 0.0000000E+00 0.0000000E+00 -1.0000000E+00
outer loop
vertex -3.0483124E-01 2.8171723E-03 3.4449991E-02
vertex 6.2311269E-02 1.2428885E-02 3.4449991E-02
vertex 6.3510157E-02 -1.0343075E-03 3.4449991E-02
endloop
endfacet
facet normal 0.0000000E+00 0.0000000E+00 -1.0000000E+00
outer loop
vertex -3.0483124E-01 2.8171723E-03 3.4449991E-02
vertex -3.0719057E-01 2.4525257E-02 3.4449991E-02
vertex 6.2311269E-02 1.2428885E-02 3.4449991E-02
endloop
endfacet
facet normal 0.0000000E+00 0.0000000E+00 -1.0000000E+00
outer loop
vertex 6.2311269E-02 1.2428885E-02 3.4449991E-02
vertex -3.0719057E-01 2.4525257E-02 3.4449991E-02
vertex 5.8835808E-02 2.5490856E-02 3.4449991E-02
endloop
endfacet
facet normal -0.0000000E+00 0.0000000E+00 -1.0000000E+00
outer loop
vertex 5.8835808E-02 2.5490856E-02 3.4449991E-02
vertex -3.0719057E-01 2.4525257E-02 3.4449991E-02
vertex 5.3185049E-02 3.7769444E-02 3.4449991E-02
endloop
endfacet
facet normal -0.0000000E+00 0.0000000E+00 -9.9999994E-01
outer loop
vertex 5.3185049E-02 3.7769444E-02 3.4449991E-02
vertex -3.0719057E-01 2.4525257E-02 3.4449991E-02
vertex 9.9999999E-09 7.6200001E-02 3.4449991E-02
endloop
endfacet
facet normal 0.0000000E+00 0.0000000E+00 -1.0000000E+00
outer loop
vertex 4.5524430E-02 4.8905414E-02 3.4449991E-02
vertex 9.9999999E-09 7.6200001E-02 3.4449991E-02
vertex 3.6078159E-02 5.8573011E-02 3.4449991E-02
endloop
endfacet
facet normal -0.0000000E+00 -0.0000000E+00 -1.0000000E+00
outer loop
vertex 4.5524430E-02 4.8905414E-02 3.4449991E-02
vertex 5.3185049E-02 3.7769444E-02 3.4449991E-02
vertex 9.9999999E-09 7.6200001E-02 3.4449991E-02
endloop
endfacet
facet normal 0.0000000E+00 0.0000000E+00 -1.0000000E+00
outer loop
vertex -3.0719057E-01 2.4525257E-02 3.4449991E-02
vertex -3.1323358E-01 4.5508318E-02 3.4449991E-02
vertex 9.9999999E-09 7.6200001E-02 3.4449991E-02
endloop
endfacet
facet normal 0.0000000E+00 0.0000000E+00 -1.0000000E+00
outer loop
vertex 9.9999999E-09 7.6200001E-02 3.4449991E-02
vertex -3.1323358E-01 4.5508318E-02 3.4449991E-02
vertex -3.2278171E-01 6.5146074E-02 3.4449991E-02
endloop
endfacet
facet normal 0.0000000E+00 0.0000000E+00 -1.0000000E+00
outer loop
vertex -3.3555263E-01 8.2857952E-02 3.4449991E-02
vertex 9.9999999E-09 7.6200001E-02 3.4449991E-02
vertex -3.2278171E-01 6.5146074E-02 3.4449991E-02
endloop
endfacet
facet normal 0.0000000E+00 0.0000000E+00 -9.9999994E-01
outer loop
vertex -3.3555263E-01 8.2857952E-02 3.4449991E-02
vertex -3.5116881E-01 9.8120406E-02 3.4449991E-02
vertex 9.9999999E-09 7.6200001E-02 3.4449991E-02
endloop
endfacet
facet normal 0.0000000E+00 0.0000000E+00 -1.0000000E+00
outer loop
vertex 9.9999999E-09 7.6200001E-02 3.4449991E-02
vertex -3.5116881E-01 9.8120406E-02 3.4449991E-02
vertex -3.8120839E-01 1.5240000E-01 3.4449991E-02
endloop
endfacet
facet normal 0.0000000E+00 0.0000000E+00 -1.0000000E+00
outer loop
vertex -3.8120839E-01 1.5240000E-01 3.4449991E-02
vertex -3.5116881E-01 9.8120406E-02 3.4449991E-02
vertex -3.6916864E-01 1.1048218E-01 3.4449991E-02
endloop
endfacet
facet normal 0.0000000E+00 0.0000000E+00 -1.0000000E+00
outer loop
vertex -3.8901997E-01 1.1957786E-01 3.4449991E-02
vertex -3.8120839E-01 1.5240000E-01 3.4449991E-02
vertex -3.6916864E-01 1.1048218E-01 3.4449991E-02
endloop
endfacet
facet normal 0.0000000E+00 0.0000000E+00 -1.0000000E+00
outer loop
vertex -3.8901997E-01 1.1957786E-01 3.4449991E-02
vertex -4.1013598E-01 1.2513861E-01 3.4449991E-02
vertex -3.8120839E-01 1.5240000E-01 3.4449991E-02
endloop
endfacet
facet normal 0.0000000E+00 0.0000000E+00 -1.0000000E+00
outer loop
vertex -3.8120839E-01 1.5240000E-01 3.4449991E-02
vertex -4.1013598E-01 1.2513861E-01 3.4449991E-02
vertex -4.3189242E-01 1.2699997E-01 3.4449991E-02
endloop
endfacet
facet normal 0.0000000E+00 0.0000000E+00 -1.0000000E+00
outer loop
vertex -4.5364612E-01 1.2510693E-01 3.4449991E-02
vertex -3.8120839E-01 1.5240000E-01 3.4449991E-02
vertex -4.3189242E-01 1.2699997E-01 3.4449991E-02
endloop
endfacet
facet normal 0.0000000E+00 0.0000000E+00 -1.0000000E+00
outer loop
vertex -4.5364612E-01 1.2510693E-01 3.4449991E-02
vertex -6.0218841E-01 1.5240000E-01 3.4449991E-02
vertex -3.8120839E-01 1.5240000E-01 3.4449991E-02
endloop
endfacet
facet normal -0.0000000E+00 0.0000000E+00 -1.0000000E+00
outer loop
vertex -4.5364612E-01 1.2510693E-01 3.4449991E-02
vertex -4.7475401E-01 1.1951549E-01 3.4449991E-02
vertex -6.0218841E-01 1.5240000E-01 3.4449991E-02
endloop
endfacet
facet normal 0.0000000E+00 0.0000000E+00 -1.0000000E+00
outer loop
vertex -6.0218841E-01 1.5240000E-01 3.4449991E-02
vertex -4.7475401E-01 1.1951549E-01 3.4449991E-02
vertex -4.9459207E-01 1.1039092E-01 3.4449991E-02
endloop
endfacet
facet normal 0.0000000E+00 0.0000000E+00 -1.0000000E+00
outer loop
vertex -6.2455827E-01 1.2289107E-01 3.4449991E-02
vertex -4.9459207E-01 1.1039092E-01 3.4449991E-02
vertex -5.1257390E-01 9.8002955E-02 3.4449991E-02
endloop
endfacet
facet normal 0.0000000E+00 0.0000000E+00 -1.0000000E+00
outer loop
vertex -6.4187038E-01 9.0157628E-02 3.4449991E-02
vertex -5.1257390E-01 9.8002955E-02 3.4449991E-02
vertex -5.2816784E-01 8.2717791E-02 3.4449991E-02
endloop
endfacet
facet normal 0.0000000E+00 0.0000000E+00 -1.0000000E+00
outer loop
vertex -5.4091299E-01 6.4987347E-02 3.4449991E-02
vertex -6.4187038E-01 9.0157628E-02 3.4449991E-02
vertex -5.2816784E-01 8.2717791E-02 3.4449991E-02
endloop
endfacet
facet normal -0.0000000E+00 0.0000000E+00 -9.9999994E-01
outer loop
vertex -5.4091299E-01 6.4987347E-02 3.4449991E-02
vertex -6.5367049E-01 5.5058539E-02 3.4449991E-02
vertex -6.4187038E-01 9.0157628E-02 3.4449991E-02
endloop
endfacet
facet normal 0.0000000E+00 0.0000000E+00 -1.0000000E+00
outer loop
vertex -5.4091299E-01 6.4987347E-02 3.4449991E-02
vertex -5.5043250E-01 4.5335725E-02 3.4449991E-02
vertex -6.5367049E-01 5.5058539E-02 3.4449991E-02
endloop
endfacet
facet normal 0.0000000E+00 0.0000000E+00 -1.0000000E+00
outer loop
vertex -6.5367049E-01 5.5058539E-02 3.4449991E-02
vertex -5.5043250E-01 4.5335725E-02 3.4449991E-02
vertex -5.5644500E-01 2.4343889E-02 3.4449991E-02
endloop
endfacet
facet normal 0.0000000E+00 0.0000000E+00 -9.9999994E-01
outer loop
vertex -6.5964901E-01 1.8514782E-02 3.4449991E-02
vertex -5.5644500E-01 2.4343889E-02 3.4449991E-02
vertex -5.5877274E-01 2.6323926E-03 3.4449991E-02
endloop
endfacet
facet normal 0.0000000E+00 0.0000000E+00 -1.0000000E+00
outer loop
vertex -6.5964901E-01 -1.8514782E-02 3.4449991E-02
vertex -5.5877274E-01 2.6323926E-03 3.4449991E-02
vertex -5.5734682E-01 -1.9156924E-02 3.4449991E-02
endloop
endfacet
facet normal 0.0000000E+00 0.0000000E+00 -1.0000000E+00
outer loop
vertex -5.5220956E-01 -4.0379930E-02 3.4449991E-02
vertex -6.5964901E-01 -1.8514782E-02 3.4449991E-02
vertex -5.5734682E-01 -1.9156924E-02 3.4449991E-02
endloop
endfacet
facet normal -0.0000000E+00 0.0000000E+00 -9.9999994E-01
outer loop
vertex -5.5220956E-01 -4.0379930E-02 3.4449991E-02
vertex -6.5367049E-01 -5.5058539E-02 3.4449991E-02
vertex -6.5964901E-01 -1.8514782E-02 3.4449991E-02
endloop
endfacet
facet normal 0.0000000E+00 -0.0000000E+00 -1.0000000E+00
outer loop
vertex -5.5220956E-01 -4.0379930E-02 3.4449991E-02
vertex -5.4351270E-01 -6.0409199E-02 3.4449991E-02
vertex -6.5367049E-01 -5.5058539E-02 3.4449991E-02
endloop
endfacet
facet normal 0.0000000E+00 0.0000000E+00 -9.9999994E-01
outer loop
vertex -6.5367049E-01 -5.5058539E-02 3.4449991E-02
vertex -5.4351270E-01 -6.0409199E-02 3.4449991E-02
vertex -6.4187038E-01 -9.0157628E-02 3.4449991E-02
endloop
endfacet
facet normal 0.0000000E+00 0.0000000E+00 -1.0000000E+00
outer loop
vertex -6.4187038E-01 -9.0157628E-02 3.4449991E-02
vertex -5.4351270E-01 -6.0409199E-02 3.4449991E-02
vertex -5.3151339E-01 -7.8652650E-02 3.4449991E-02
endloop
endfacet
facet normal 0.0000000E+00 0.0000000E+00 -1.0000000E+00
outer loop
vertex -5.1656634E-01 -9.4570979E-02 3.4449991E-02
vertex -6.4187038E-01 -9.0157628E-02 3.4449991E-02
vertex -5.3151339E-01 -7.8652650E-02 3.4449991E-02
endloop
endfacet
facet normal -0.0000000E+00 0.0000000E+00 -1.0000000E+00
outer loop
vertex -5.1656634E-01 -9.4570979E-02 3.4449991E-02
vertex -6.2455827E-01 -1.2289107E-01 3.4449991E-02
vertex -6.4187038E-01 -9.0157628E-02 3.4449991E-02
endloop
endfacet
facet normal 0.0000000E+00 -0.0000000E+00 -1.0000000E+00
outer loop
vertex -5.1656634E-01 -9.4570979E-02 3.4449991E-02
vertex -4.9911341E-01 -1.0769356E-01 3.4449991E-02
vertex -6.2455827E-01 -1.2289107E-01 3.4449991E-02
endloop
endfacet
facet normal 0.0000000E+00 0.0000000E+00 -1.0000000E+00
outer loop
vertex -6.2455827E-01 -1.2289107E-01 3.4449991E-02
vertex -4.9911341E-01 -1.0769356E-01 3.4449991E-02
vertex -6.0218841E-01 -1.5240000E-01 3.4449991E-02
endloop
endfacet
facet normal 0.0000000E+00 0.0000000E+00 -1.0000000E+00
outer loop
vertex -6.0218841E-01 -1.5240000E-01 3.4449991E-02
vertex -4.9911341E-01 -1.0769356E-01 3.4449991E-02
vertex -4.7967055E-01 -1.1763253E-01 3.4449991E-02
endloop
endfacet
facet normal -0.0000000E+00 0.0000000E+00 -9.9999994E-01
outer loop
vertex -4.5881253E-01 -1.2409401E-01 3.4449991E-02
vertex -6.0218841E-01 -1.5240000E-01 3.4449991E-02
vertex -4.7967055E-01 -1.1763253E-01 3.4449991E-02
endloop
endfacet
facet normal 0.0000000E+00 -0.0000000E+00 -1.0000000E+00
outer loop
vertex -4.5881253E-01 -1.2409401E-01 3.4449991E-02
vertex -3.8120154E-01 -1.5240000E-01 3.4449991E-02
vertex -6.0218841E-01 -1.5240000E-01 3.4449991E-02
endloop
endfacet
facet normal 0.0000000E+00 0.0000000E+00 -1.0000000E+00
outer loop
vertex -4.5881253E-01 -1.2409401E-01 3.4449991E-02
vertex -4.3715599E-01 -1.2688702E-01 3.4449991E-02
vertex -3.8120154E-01 -1.5240000E-01 3.4449991E-02
endloop
endfacet
facet normal 0.0000000E+00 0.0000000E+00 -9.9999994E-01
outer loop
vertex -3.8120154E-01 -1.5240000E-01 3.4449991E-02
vertex -4.3715599E-01 -1.2688702E-01 3.4449991E-02
vertex -4.1534108E-01 -1.2592895E-01 3.4449991E-02
endloop
endfacet
facet normal 0.0000000E+00 -0.0000000E+00 -1.0000000E+00
outer loop
vertex -3.9401275E-01 -1.2124819E-01 3.4449991E-02
vertex -3.8120154E-01 -1.5240000E-01 3.4449991E-02
vertex -4.1534108E-01 -1.2592895E-01 3.4449991E-02
endloop
endfacet
facet normal 0.0000000E+00 0.0000000E+00 -1.0000000E+00
outer loop
vertex -3.9401275E-01 -1.2124819E-01 3.4449991E-02
vertex -3.5876745E-01 -1.2533475E-01 3.4449991E-02
vertex -3.8120154E-01 -1.5240000E-01 3.4449991E-02
endloop
endfacet
facet normal 0.0000000E+00 0.0000000E+00 -1.0000000E+00
outer loop
vertex -3.9401275E-01 -1.2124819E-01 3.4449991E-02
vertex -3.6446613E-01 -1.2210494E-01 3.4449991E-02
vertex -3.5876745E-01 -1.2533475E-01 3.4449991E-02
endloop
endfacet
facet normal 0.0000000E+00 0.0000000E+00 -1.0000000E+00
outer loop
vertex -3.9401275E-01 -1.2124819E-01 3.4449991E-02
vertex -3.6952734E-01 -1.1794673E-01 3.4449991E-02
vertex -3.6446613E-01 -1.2210494E-01 3.4449991E-02
endloop
endfacet
facet normal 0.0000000E+00 0.0000000E+00 -1.0000000E+00
outer loop
vertex -3.9401275E-01 -1.2124819E-01 3.4449991E-02
vertex -3.7380150E-01 -1.1298306E-01 3.4449991E-02
vertex -3.6952734E-01 -1.1794673E-01 3.4449991E-02
endloop
endfacet
facet normal 0.0000000E+00 -0.0000000E+00 -1.0000000E+00
outer loop
vertex -3.5876745E-01 -1.2533475E-01 3.4449991E-02
vertex -3.5259977E-01 -1.2754074E-01 3.4449991E-02
vertex -3.8120154E-01 -1.5240000E-01 3.4449991E-02
endloop
endfacet
facet normal 0.0000000E+00 0.0000000E+00 -1.0000000E+00
outer loop
vertex -3.8120154E-01 -1.5240000E-01 3.4449991E-02
vertex -3.5259977E-01 -1.2754074E-01 3.4449991E-02
vertex -3.4614539E-01 -1.2865765E-01 3.4449991E-02
endloop
endfacet
facet normal 0.0000000E+00 0.0000000E+00 -1.0000000E+00
outer loop
vertex -3.3959511E-01 -1.2865253E-01 3.4449991E-02
vertex -3.8120154E-01 -1.5240000E-01 3.4449991E-02
vertex -3.4614539E-01 -1.2865765E-01 3.4449991E-02
endloop
endfacet
facet normal 0.0000000E+00 -0.0000000E+00 -1.0000000E+00
outer loop
vertex -3.3959511E-01 -1.2865253E-01 3.4449991E-02
vertex -3.3314249E-01 -1.2752549E-01 3.4449991E-02
vertex -3.8120154E-01 -1.5240000E-01 3.4449991E-02
endloop
endfacet
facet normal 0.0000000E+00 0.0000000E+00 -9.9999994E-01
outer loop
vertex -3.8120154E-01 -1.5240000E-01 3.4449991E-02
vertex -3.3314249E-01 -1.2752549E-01 3.4449991E-02
vertex -3.2697830E-01 -1.2530985E-01 3.4449991E-02
endloop
endfacet
facet normal 0.0000000E+00 0.0000000E+00 -9.9999994E-01
outer loop
vertex 4.9249001E-04 -7.8670911E-02 3.4449991E-02
vertex -3.2697830E-01 -1.2530985E-01 3.4449991E-02
vertex -3.2128471E-01 -1.2207110E-01 3.4449991E-02
endloop
endfacet
facet normal 0.0000000E+00 -0.0000000E+00 -1.0000000E+00
outer loop
vertex -3.1623000E-01 -1.1790497E-01 3.4449991E-02
vertex 4.9249001E-04 -7.8670911E-02 3.4449991E-02
vertex -3.2128471E-01 -1.2207110E-01 3.4449991E-02
endloop
endfacet
facet normal 0.0000000E+00 0.0000000E+00 -1.0000000E+00
outer loop
vertex -3.1623000E-01 -1.1790497E-01 3.4449991E-02
vertex -3.1196362E-01 -1.1293463E-01 3.4449991E-02
vertex 4.9249001E-04 -7.8670911E-02 3.4449991E-02
endloop
endfacet
facet normal 0.0000000E+00 0.0000000E+00 -1.0000000E+00
outer loop
vertex 4.9249001E-04 -7.8670911E-02 3.4449991E-02
vertex -3.1196362E-01 -1.1293463E-01 3.4449991E-02
vertex -3.0861166E-01 -1.0730695E-01 3.4449991E-02
endloop
endfacet
facet normal 0.0000000E+00 -0.0000000E+00 -1.0000000E+00
outer loop
vertex -3.0627316E-01 -1.0118829E-01 3.4449991E-02
vertex 4.9249001E-04 -7.8670911E-02 3.4449991E-02
vertex -3.0861166E-01 -1.0730695E-01 3.4449991E-02
endloop
endfacet
facet normal 0.0000000E+00 0.0000000E+00 -1.0000000E+00
outer loop
vertex -3.0627316E-01 -1.0118829E-01 3.4449991E-02
vertex -3.0501729E-01 -9.4759502E-02 3.4449991E-02
vertex 4.9249001E-04 -7.8670911E-02 3.4449991E-02
endloop
endfacet
facet normal 0.0000000E+00 0.0000000E+00 -1.0000000E+00
outer loop
vertex 4.9249001E-04 -7.8670911E-02 3.4449991E-02
vertex -3.0501729E-01 -9.4759502E-02 3.4449991E-02
vertex -3.0488116E-01 -8.8210620E-02 3.4449991E-02
endloop
endfacet
facet normal 0.0000000E+00 0.0000000E+00 -1.0000000E+00
outer loop
vertex -3.0795097E-01 -7.5524643E-02 3.4449991E-02
vertex -3.1106615E-01 -6.9762498E-02 3.4449991E-02
vertex 1.3446010E-02 -7.4811354E-02 3.4449991E-02
endloop
endfacet
facet normal -0.0000000E+00 -0.0000000E+00 -1.0000000E+00
outer loop
vertex 1.2977880E-02 7.2422892E-02 3.4449991E-02
vertex 2.5122380E-02 6.6489376E-02 3.4449991E-02
vertex 9.9999999E-09 7.6200001E-02 3.4449991E-02
endloop
endfacet
facet normal 0.0000000E+00 0.0000000E+00 -1.0000000E+00
outer loop
vertex 9.9999999E-09 7.6200001E-02 3.4449991E-02
vertex 2.5122380E-02 6.6489376E-02 3.4449991E-02
vertex 3.6078159E-02 5.8573011E-02 3.4449991E-02
endloop
endfacet
facet normal 0.0000000E+00 0.0000000E+00 -1.0000000E+00
outer loop
vertex 6.2396891E-02 -1.4504853E-02 3.4449991E-02
vertex 5.9004460E-02 -2.7588641E-02 3.4449991E-02
vertex -3.0622539E-01 -1.8974194E-02 3.4449991E-02
endloop
endfacet
facet normal 0.0000000E+00 -0.0000000E+00 -1.0000000E+00
outer loop
vertex -3.0622539E-01 -1.8974194E-02 3.4449991E-02
vertex 5.9004460E-02 -2.7588641E-02 3.4449991E-02
vertex -3.1133181E-01 -4.0204644E-02 3.4449991E-02
endloop
endfacet
facet normal 0.0000000E+00 0.0000000E+00 -1.0000000E+00
outer loop
vertex -3.1133181E-01 -4.0204644E-02 3.4449991E-02
vertex 5.9004460E-02 -2.7588641E-02 3.4449991E-02
vertex 5.3431939E-02 -3.9902918E-02 3.4449991E-02
endloop
endfacet
facet normal 0.0000000E+00 0.0000000E+00 -1.0000000E+00
outer loop
vertex 4.5842178E-02 -5.1087402E-02 3.4449991E-02
vertex -3.1133181E-01 -4.0204644E-02 3.4449991E-02
vertex 5.3431939E-02 -3.9902918E-02 3.4449991E-02
endloop
endfacet
facet normal -0.0000000E+00 0.0000000E+00 -1.0000000E+00
outer loop
vertex 4.5842178E-02 -5.1087402E-02 3.4449991E-02
vertex 3.6457639E-02 -6.0814865E-02 3.4449991E-02
vertex -3.1133181E-01 -4.0204644E-02 3.4449991E-02
endloop
endfacet
facet normal 0.0000000E+00 0.0000000E+00 -1.0000000E+00
outer loop
vertex -3.1133181E-01 -4.0204644E-02 3.4449991E-02
vertex 3.6457639E-02 -6.0814865E-02 3.4449991E-02
vertex 1.3446010E-02 -7.4811354E-02 3.4449991E-02
endloop
endfacet
facet normal 0.0000000E+00 0.0000000E+00 -1.0000000E+00
outer loop
vertex 1.3446010E-02 -7.4811354E-02 3.4449991E-02
vertex 3.6457639E-02 -6.0814865E-02 3.4449991E-02
vertex 2.5552670E-02 -6.8800725E-02 3.4449991E-02
endloop
endfacet
facet normal 0.0000000E+00 0.0000000E+00 -1.0000000E+00
outer loop
vertex 4.9249001E-04 -7.8670911E-02 3.4449991E-02
vertex -3.8120154E-01 -1.5240000E-01 3.4449991E-02
vertex -3.2697830E-01 -1.2530985E-01 3.4449991E-02
endloop
endfacet
facet normal 0.0000000E+00 0.0000000E+00 -9.9999994E-01
outer loop
vertex -6.5964901E-01 -1.8514782E-02 3.4449991E-02
vertex -6.5964901E-01 1.8514782E-02 3.4449991E-02
vertex -5.5877274E-01 2.6323926E-03 3.4449991E-02
endloop
endfacet
facet normal 0.0000000E+00 0.0000000E+00 -9.9999994E-01
outer loop
vertex -6.5964901E-01 1.8514782E-02 3.4449991E-02
vertex -6.5367049E-01 5.5058539E-02 3.4449991E-02
vertex -5.5644500E-01 2.4343889E-02 3.4449991E-02
endloop
endfacet
facet normal 0.0000000E+00 0.0000000E+00 -1.0000000E+00
outer loop
vertex -6.4187038E-01 9.0157628E-02 3.4449991E-02
vertex -6.2455827E-01 1.2289107E-01 3.4449991E-02
vertex -5.1257390E-01 9.8002955E-02 3.4449991E-02
endloop
endfacet
facet normal 0.0000000E+00 0.0000000E+00 -1.0000000E+00
outer loop
vertex -6.2455827E-01 1.2289107E-01 3.4449991E-02
vertex -6.0218841E-01 1.5240000E-01 3.4449991E-02
vertex -4.9459207E-01 1.1039092E-01 3.4449991E-02
endloop
endfacet
endsolid Created by stlwrite.m 20-Dec-2016 20:13:38
